CommissionerFlair-Thin.ufo
<glyph name="numbersign" format="2">
  <advance width="671"/>
  <unicode hex="0023"/>
  <outline>
    <contour>
      <point x="20" y="169" type="line"/>
      <point x="78" y="171"/>
      <point x="133" y="171"/>
      <point x="180" y="171" type="curve"/>
      <point x="430" y="171" type="line"/>
      <point x="477" y="171"/>
      <point x="532" y="171"/>
      <point x="590" y="169" type="curve"/>
      <point x="590" y="201" type="line"/>
      <point x="532" y="199"/>
      <point x="477" y="199"/>
      <point x="430" y="199" type="curve"/>
      <point x="180" y="199" type="line"/>
      <point x="133" y="199"/>
      <point x="78" y="199"/>
      <point x="20" y="201" type="curve"/>
    </contour>
    <contour>
      <point x="128" y="0" type="curve"/>
      <point x="163" y="0" type="line"/>
      <point x="176" y="68"/>
      <point x="188" y="125"/>
      <point x="206" y="209" type="curve"/>
      <point x="255" y="434" type="line"/>
      <point x="274" y="523"/>
      <point x="287" y="582"/>
      <point x="304" y="653" type="curve"/>
      <point x="269" y="653" type="line"/>
      <point x="255" y="582"/>
      <point x="243" y="523"/>
      <point x="224" y="436" type="curve"/>
      <point x="175" y="209" type="line"/>
      <point x="157" y="125"/>
      <point x="143" y="68"/>
    </contour>
    <contour>
      <point x="81" y="449" type="line"/>
      <point x="139" y="451"/>
      <point x="194" y="451"/>
      <point x="241" y="451" type="curve"/>
      <point x="491" y="451" type="line"/>
      <point x="538" y="451"/>
      <point x="593" y="451"/>
      <point x="651" y="449" type="curve"/>
      <point x="651" y="481" type="line"/>
      <point x="593" y="479"/>
      <point x="538" y="479"/>
      <point x="491" y="479" type="curve"/>
      <point x="241" y="479" type="line"/>
      <point x="194" y="479"/>
      <point x="139" y="479"/>
      <point x="81" y="481" type="curve"/>
    </contour>
    <contour>
      <point x="358" y="0" type="curve"/>
      <point x="393" y="0" type="line"/>
      <point x="406" y="68"/>
      <point x="418" y="125"/>
      <point x="436" y="209" type="curve"/>
      <point x="485" y="434" type="line"/>
      <point x="504" y="523"/>
      <point x="517" y="582"/>
      <point x="534" y="653" type="curve"/>
      <point x="499" y="653" type="line"/>
      <point x="485" y="582"/>
      <point x="473" y="523"/>
      <point x="454" y="436" type="curve"/>
      <point x="405" y="209" type="line"/>
      <point x="387" y="125"/>
      <point x="373" y="68"/>
    </contour>
  </outline>
</glyph>
<glyph name="zero" format="2">
  <advance width="643"/>
  <unicode hex="0030"/>
  <outline>
    <contour>
      <point x="324" y="-9" type="curve" smooth="yes"/>
      <point x="484" y="-9"/>
      <point x="578" y="126"/>
      <point x="578" y="344" type="curve" smooth="yes"/>
      <point x="578" y="556"/>
      <point x="488" y="696"/>
      <point x="322" y="696" type="curve" smooth="yes"/>
      <point x="159" y="696"/>
      <point x="65" y="558"/>
      <point x="65" y="344" type="curve" smooth="yes"/>
      <point x="65" y="137"/>
      <point x="150" y="-9"/>
    </contour>
    <contour>
      <point x="322" y="23" type="curve"/>
      <point x="162" y="26"/>
      <point x="97" y="158"/>
      <point x="97" y="344" type="curve" smooth="yes"/>
      <point x="97" y="528"/>
      <point x="165" y="661"/>
      <point x="322" y="664" type="curve"/>
      <point x="475" y="661"/>
      <point x="546" y="539"/>
      <point x="546" y="344" type="curve" smooth="yes"/>
      <point x="546" y="161"/>
      <point x="482" y="26"/>
    </contour>
  </outline>
</glyph>
<glyph name="one" format="2">
  <advance width="408"/>
  <unicode hex="0031"/>
  <outline>
    <contour>
      <point x="50" y="523" type="line"/>
      <point x="122" y="567"/>
      <point x="194" y="610"/>
      <point x="267" y="652" type="curve"/>
      <point x="267" y="686" type="line"/>
      <point x="191" y="642"/>
      <point x="116" y="599"/>
      <point x="39" y="558" type="curve"/>
    </contour>
    <contour>
      <point x="251" y="0" type="curve"/>
      <point x="286" y="0" type="line"/>
      <point x="283" y="75"/>
      <point x="283" y="140"/>
      <point x="283" y="221" type="curve"/>
      <point x="283" y="447" type="line"/>
      <point x="283" y="532"/>
      <point x="284" y="612"/>
      <point x="286" y="684" type="curve"/>
      <point x="267" y="686" type="line"/>
      <point x="252" y="668" type="line"/>
      <point x="252" y="594"/>
      <point x="253" y="520"/>
      <point x="253" y="447" type="curve"/>
      <point x="253" y="221" type="line"/>
      <point x="253" y="140"/>
      <point x="253" y="75"/>
    </contour>
  </outline>
</glyph>
<glyph name="two" format="2">
  <advance width="543"/>
  <unicode hex="0032"/>
  <outline>
    <contour>
      <point x="53" y="0" type="line"/>
      <point x="483" y="0" type="line"/>
      <point x="483" y="33" type="line"/>
      <point x="401" y="31"/>
      <point x="318" y="30"/>
      <point x="236" y="30" type="curve"/>
      <point x="85" y="30" type="line"/>
      <point x="93" y="22" type="line"/>
      <point x="214" y="130" type="line"/>
      <point x="376" y="275"/>
      <point x="466" y="389"/>
      <point x="466" y="508" type="curve" smooth="yes"/>
      <point x="466" y="623"/>
      <point x="393" y="696"/>
      <point x="266" y="696" type="curve" smooth="yes"/>
      <point x="200" y="696"/>
      <point x="103" y="657"/>
      <point x="50" y="635" type="curve"/>
      <point x="56" y="598" type="line"/>
      <point x="147" y="645"/>
      <point x="232" y="664"/>
      <point x="266" y="664" type="curve"/>
      <point x="379" y="663"/>
      <point x="435" y="611"/>
      <point x="435" y="507" type="curve" smooth="yes"/>
      <point x="435" y="393"/>
      <point x="343" y="285"/>
      <point x="186" y="145" type="curve"/>
      <point x="142" y="106"/>
      <point x="97" y="67"/>
      <point x="53" y="30" type="curve"/>
    </contour>
  </outline>
</glyph>
<glyph name="four" format="2">
  <advance width="589"/>
  <unicode hex="0034"/>
  <outline>
    <contour>
      <point x="380" y="0" type="curve"/>
      <point x="415" y="0" type="line"/>
      <point x="412" y="61"/>
      <point x="412" y="108"/>
      <point x="412" y="182" type="curve"/>
      <point x="412" y="443" type="line"/>
      <point x="412" y="522"/>
      <point x="412" y="601"/>
      <point x="415" y="684" type="curve"/>
      <point x="378" y="684" type="line"/>
      <point x="348" y="638"/>
      <point x="314" y="589"/>
      <point x="281" y="542" type="curve"/>
      <point x="189" y="412" type="line"/>
      <point x="142" y="346"/>
      <point x="79" y="256"/>
      <point x="35" y="197" type="curve"/>
      <point x="35" y="169" type="line"/>
      <point x="404" y="169" type="line"/>
      <point x="451" y="169"/>
      <point x="520" y="169"/>
      <point x="563" y="167" type="curve"/>
      <point x="563" y="201" type="line"/>
      <point x="520" y="199"/>
      <point x="451" y="199"/>
      <point x="404" y="199" type="curve"/>
      <point x="391" y="199" type="line"/>
      <point x="63" y="199" type="line"/>
      <point x="68" y="185" type="line"/>
      <point x="100" y="233"/>
      <point x="132" y="280"/>
      <point x="166" y="328" type="curve"/>
      <point x="293" y="508" type="line"/>
      <point x="332" y="563"/>
      <point x="371" y="618"/>
      <point x="410" y="671" type="curve"/>
      <point x="381" y="662" type="line"/>
      <point x="382" y="589"/>
      <point x="382" y="516"/>
      <point x="382" y="443" type="curve"/>
      <point x="382" y="193" type="line"/>
      <point x="382" y="182" type="line"/>
      <point x="382" y="108"/>
      <point x="382" y="61"/>
    </contour>
  </outline>
</glyph>
<glyph name="eight" format="2">
  <advance width="598"/>
  <unicode hex="0038"/>
  <outline>
    <contour>
      <point x="299" y="-9" type="curve" smooth="yes"/>
      <point x="460" y="-9"/>
      <point x="538" y="81"/>
      <point x="538" y="191" type="curve" smooth="yes"/>
      <point x="538" y="306"/>
      <point x="451" y="359"/>
      <point x="393" y="371" type="curve"/>
      <point x="393" y="377" type="line"/>
      <point x="452" y="394"/>
      <point x="512" y="449"/>
      <point x="512" y="531" type="curve" smooth="yes"/>
      <point x="512" y="630"/>
      <point x="426" y="696"/>
      <point x="299" y="696" type="curve" smooth="yes"/>
      <point x="172" y="696"/>
      <point x="86" y="630"/>
      <point x="86" y="531" type="curve" smooth="yes"/>
      <point x="86" y="449"/>
      <point x="146" y="394"/>
      <point x="204" y="377" type="curve"/>
      <point x="204" y="371" type="line"/>
      <point x="147" y="359"/>
      <point x="60" y="306"/>
      <point x="60" y="191" type="curve" smooth="yes"/>
      <point x="60" y="81"/>
      <point x="138" y="-9"/>
    </contour>
    <contour>
      <point x="299" y="23" type="curve"/>
      <point x="152" y="24"/>
      <point x="91" y="95"/>
      <point x="91" y="191" type="curve" smooth="yes"/>
      <point x="91" y="305"/>
      <point x="183" y="357"/>
      <point x="299" y="358" type="curve"/>
      <point x="415" y="357"/>
      <point x="507" y="305"/>
      <point x="507" y="191" type="curve" smooth="yes"/>
      <point x="507" y="95"/>
      <point x="446" y="24"/>
    </contour>
    <contour>
      <point x="299" y="388" type="curve"/>
      <point x="182" y="389"/>
      <point x="117" y="448"/>
      <point x="117" y="532" type="curve" smooth="yes"/>
      <point x="117" y="617"/>
      <point x="188" y="663"/>
      <point x="299" y="664" type="curve"/>
      <point x="409" y="663"/>
      <point x="481" y="617"/>
      <point x="481" y="532" type="curve" smooth="yes"/>
      <point x="481" y="448"/>
      <point x="415" y="389"/>
    </contour>
  </outline>
</glyph>
<glyph name="C" format="2">
  <advance width="686"/>
  <unicode hex="0043"/>
  <anchor x="401" y="0" name="bottom"/>
  <anchor x="391" y="713" name="top"/>
  <outline>
    <contour>
      <point x="417" y="-9" type="curve" smooth="yes"/>
      <point x="486" y="-9"/>
      <point x="566" y="11"/>
      <point x="625" y="42" type="curve"/>
      <point x="619" y="81" type="line"/>
      <point x="558" y="45"/>
      <point x="484" y="24"/>
      <point x="415" y="24" type="curve"/>
      <point x="204" y="27"/>
      <point x="93" y="173"/>
      <point x="93" y="358" type="curve" smooth="yes"/>
      <point x="93" y="560"/>
      <point x="221" y="689"/>
      <point x="402" y="692" type="curve"/>
      <point x="442" y="692"/>
      <point x="527" y="674"/>
      <point x="626" y="629" type="curve"/>
      <point x="631" y="667" type="line"/>
      <point x="573" y="691"/>
      <point x="478" y="725"/>
      <point x="403" y="725" type="curve" smooth="yes"/>
      <point x="207" y="725"/>
      <point x="60" y="576"/>
      <point x="60" y="359" type="curve" smooth="yes"/>
      <point x="60" y="153"/>
      <point x="195" y="-9"/>
    </contour>
  </outline>
</glyph>
<glyph name="D" format="2">
  <advance width="739"/>
  <unicode hex="0044"/>
  <anchor x="350" y="0" name="bottom"/>
  <anchor x="370" y="357" name="center"/>
  <anchor x="350" y="713" name="top"/>
  <outline>
    <contour>
      <point x="108" y="0" type="curve"/>
      <point x="185" y="0"/>
      <point x="236" y="-1"/>
      <point x="315" y="-1" type="curve"/>
      <point x="579" y="-1"/>
      <point x="679" y="159"/>
      <point x="679" y="360" type="curve" smooth="yes"/>
      <point x="679" y="580"/>
      <point x="556" y="714"/>
      <point x="334" y="714" type="curve"/>
      <point x="261" y="714"/>
      <point x="203" y="713"/>
      <point x="108" y="713" type="curve"/>
      <point x="110" y="632"/>
      <point x="110" y="562"/>
      <point x="110" y="475" type="curve"/>
      <point x="110" y="238" type="line"/>
      <point x="110" y="151"/>
      <point x="110" y="81"/>
    </contour>
    <contour>
      <point x="144" y="31" type="line"/>
      <point x="142" y="99"/>
      <point x="142" y="162"/>
      <point x="142" y="238" type="curve"/>
      <point x="142" y="475" type="line"/>
      <point x="142" y="551"/>
      <point x="142" y="614"/>
      <point x="144" y="682" type="curve"/>
      <point x="329" y="682" type="line"/>
      <point x="553" y="679"/>
      <point x="646" y="556"/>
      <point x="646" y="361" type="curve" smooth="yes"/>
      <point x="646" y="173"/>
      <point x="565" y="34"/>
      <point x="316" y="31" type="curve"/>
    </contour>
  </outline>
</glyph>
<glyph name="E" format="2">
  <advance width="591"/>
  <unicode hex="0045"/>
  <anchor x="320" y="0" name="bottom"/>
  <anchor x="528" y="0" name="ogonek"/>
  <anchor x="320" y="713" name="top"/>
  <anchor x="37" y="713" name="topleft"/>
  <outline>
    <contour>
      <point x="108" y="0" type="curve"/>
      <point x="145" y="0" type="line"/>
      <point x="145" y="4" type="line"/>
      <point x="142" y="85"/>
      <point x="142" y="155"/>
      <point x="142" y="242" type="curve"/>
      <point x="142" y="472" type="line"/>
      <point x="142" y="559"/>
      <point x="142" y="629"/>
      <point x="145" y="710" type="curve"/>
      <point x="145" y="713" type="line"/>
      <point x="108" y="713" type="line"/>
      <point x="110" y="632"/>
      <point x="110" y="562"/>
      <point x="110" y="475" type="curve"/>
      <point x="110" y="238" type="line"/>
      <point x="110" y="151"/>
      <point x="110" y="81"/>
    </contour>
    <contour>
      <point x="136" y="0" type="line"/>
      <point x="528" y="0" type="line"/>
      <point x="528" y="35" type="line"/>
      <point x="451" y="32"/>
      <point x="369" y="31"/>
      <point x="276" y="31" type="curve"/>
      <point x="136" y="31" type="line"/>
    </contour>
    <contour>
      <point x="136" y="347" type="line"/>
      <point x="280" y="347" type="line"/>
      <point x="374" y="347"/>
      <point x="437" y="347"/>
      <point x="506" y="346" type="curve"/>
      <point x="506" y="381" type="line"/>
      <point x="441" y="378"/>
      <point x="377" y="378"/>
      <point x="281" y="378" type="curve"/>
      <point x="136" y="378" type="line"/>
    </contour>
    <contour>
      <point x="136" y="682" type="line"/>
      <point x="272" y="682" type="line"/>
      <point x="382" y="682"/>
      <point x="458" y="681"/>
      <point x="529" y="678" type="curve"/>
      <point x="529" y="713" type="line"/>
      <point x="136" y="713" type="line"/>
    </contour>
  </outline>
</glyph>
<glyph name="K" format="2">
  <advance width="647"/>
  <unicode hex="004B"/>
  <anchor x="332" y="0" name="bottom"/>
  <anchor x="332" y="713" name="top"/>
  <outline>
    <contour>
      <point x="561" y="0" type="curve"/>
      <point x="616" y="0" type="line"/>
      <point x="548" y="59"/>
      <point x="443" y="152"/>
      <point x="365" y="222" type="curve"/>
      <point x="197" y="374" type="line"/>
      <point x="197" y="360" type="line"/>
      <point x="347" y="495" type="line"/>
      <point x="427" y="566"/>
      <point x="507" y="637"/>
      <point x="594" y="713" type="curve"/>
      <point x="540" y="713" type="line"/>
      <point x="453" y="633"/>
      <point x="392" y="578"/>
      <point x="323" y="516" type="curve"/>
      <point x="176" y="383" type="line"/>
      <point x="134" y="383" type="line"/>
      <point x="134" y="352" type="line"/>
      <point x="175" y="352" type="line"/>
      <point x="347" y="196" type="line"/>
      <point x="414" y="136"/>
      <point x="480" y="74"/>
    </contour>
    <contour>
      <point x="108" y="0" type="curve"/>
      <point x="145" y="0" type="line"/>
      <point x="142" y="81"/>
      <point x="142" y="151"/>
      <point x="142" y="238" type="curve"/>
      <point x="142" y="475" type="line"/>
      <point x="142" y="562"/>
      <point x="142" y="632"/>
      <point x="145" y="713" type="curve"/>
      <point x="108" y="713" type="line"/>
      <point x="110" y="632"/>
      <point x="110" y="562"/>
      <point x="110" y="475" type="curve"/>
      <point x="110" y="238" type="line"/>
      <point x="110" y="151"/>
      <point x="110" y="81"/>
    </contour>
  </outline>
</glyph>
<glyph name="N" format="2">
  <advance width="758"/>
  <unicode hex="004E"/>
  <anchor x="379" y="0" name="bottom"/>
  <anchor x="379" y="713" name="top"/>
  <outline>
    <contour>
      <point x="108" y="0" type="curve"/>
      <point x="145" y="0" type="line"/>
      <point x="142" y="81"/>
      <point x="142" y="151"/>
      <point x="142" y="238" type="curve"/>
      <point x="142" y="655" type="line"/>
      <point x="146" y="655" type="line"/>
      <point x="331" y="396" type="line"/>
      <point x="442" y="241"/>
      <point x="531" y="116"/>
      <point x="613" y="0" type="curve"/>
      <point x="650" y="0" type="line"/>
      <point x="647" y="81"/>
      <point x="647" y="151"/>
      <point x="647" y="238" type="curve"/>
      <point x="647" y="475" type="line"/>
      <point x="647" y="562"/>
      <point x="647" y="632"/>
      <point x="650" y="713" type="curve"/>
      <point x="613" y="713" type="line"/>
      <point x="615" y="632"/>
      <point x="615" y="562"/>
      <point x="615" y="475" type="curve"/>
      <point x="615" y="62" type="line"/>
      <point x="611" y="62" type="line"/>
      <point x="426" y="319" type="line"/>
      <point x="335" y="445"/>
      <point x="243" y="575"/>
      <point x="146" y="713" type="curve"/>
      <point x="108" y="713" type="line"/>
      <point x="110" y="632"/>
      <point x="110" y="562"/>
      <point x="110" y="475" type="curve"/>
      <point x="110" y="238" type="line"/>
      <point x="110" y="151"/>
      <point x="110" y="81"/>
    </contour>
  </outline>
</glyph>
<glyph name="W" format="2">
  <advance width="999"/>
  <unicode hex="0057"/>
  <anchor x="499" y="0" name="bottom"/>
  <anchor x="499" y="713" name="top"/>
  <outline>
    <contour>
      <point x="246" y="0" type="curve"/>
      <point x="304" y="0" type="line"/>
      <point x="333" y="110"/>
      <point x="371" y="243"/>
      <point x="403" y="353" type="curve"/>
      <point x="496" y="672" type="line"/>
      <point x="502" y="672" type="line"/>
      <point x="596" y="353" type="line"/>
      <point x="628" y="243"/>
      <point x="666" y="111"/>
      <point x="696" y="0" type="curve"/>
      <point x="754" y="0" type="line"/>
      <point x="771" y="68"/>
      <point x="797" y="155"/>
      <point x="819" y="226" type="curve"/>
      <point x="888" y="450" type="line"/>
      <point x="912" y="529"/>
      <point x="942" y="627"/>
      <point x="972" y="713" type="curve"/>
      <point x="931" y="713" type="line"/>
      <point x="900" y="601"/>
      <point x="860" y="469"/>
      <point x="826" y="358" type="curve"/>
      <point x="728" y="37" type="line"/>
      <point x="722" y="37" type="line"/>
      <point x="628" y="357" type="line"/>
      <point x="594" y="471"/>
      <point x="557" y="599"/>
      <point x="526" y="713" type="curve"/>
      <point x="471" y="713" type="line"/>
      <point x="442" y="602"/>
      <point x="403" y="467"/>
      <point x="371" y="358" type="curve"/>
      <point x="278" y="37" type="line"/>
      <point x="272" y="37" type="line"/>
      <point x="175" y="355" type="line"/>
      <point x="140" y="469"/>
      <point x="101" y="599"/>
      <point x="69" y="713" type="curve"/>
      <point x="28" y="713" type="line"/>
      <point x="56" y="629"/>
      <point x="89" y="527"/>
      <point x="113" y="448" type="curve"/>
      <point x="181" y="225" type="line"/>
      <point x="202" y="156"/>
      <point x="227" y="71"/>
    </contour>
  </outline>
</glyph>
<glyph name="X" format="2">
  <advance width="659"/>
  <unicode hex="0058"/>
  <outline>
    <contour>
      <point x="42" y="0" type="curve"/>
      <point x="88" y="0" type="line"/>
      <point x="135" y="70"/>
      <point x="175" y="129"/>
      <point x="217" y="190" type="curve"/>
      <point x="317" y="335" type="line"/>
      <point x="323" y="335" type="line"/>
      <point x="430" y="191" type="line"/>
      <point x="473" y="133"/>
      <point x="519" y="70"/>
      <point x="569" y="0" type="curve"/>
      <point x="617" y="0" type="line"/>
      <point x="557" y="75"/>
      <point x="506" y="142"/>
      <point x="449" y="219" type="curve"/>
      <point x="334" y="374" type="line"/>
      <point x="334" y="357" type="line"/>
      <point x="445" y="515" type="line"/>
      <point x="485" y="572"/>
      <point x="534" y="640"/>
      <point x="588" y="713" type="curve"/>
      <point x="541" y="713" type="line"/>
      <point x="494" y="645"/>
      <point x="447" y="575"/>
      <point x="404" y="513" type="curve"/>
      <point x="321" y="394" type="line"/>
      <point x="315" y="394" type="line"/>
      <point x="230" y="512" type="line"/>
      <point x="186" y="573"/>
      <point x="138" y="642"/>
      <point x="90" y="713" type="curve"/>
      <point x="43" y="713" type="line"/>
      <point x="103" y="633"/>
      <point x="151" y="567"/>
      <point x="199" y="501" type="curve"/>
      <point x="304" y="355" type="line"/>
      <point x="304" y="372" type="line"/>
      <point x="184" y="199" type="line"/>
      <point x="134" y="127"/>
      <point x="88" y="63"/>
    </contour>
  </outline>
</glyph>
<glyph name="Y" format="2">
  <advance width="629"/>
  <unicode hex="0059"/>
  <anchor x="315" y="0" name="bottom"/>
  <anchor x="315" y="713" name="top"/>
  <anchor x="20" y="713" name="topleft"/>
  <outline>
    <contour>
      <point x="300" y="300" type="line"/>
      <point x="330" y="300" type="line"/>
      <point x="493" y="551" type="line"/>
      <point x="527" y="603"/>
      <point x="563" y="658"/>
      <point x="600" y="713" type="curve"/>
      <point x="556" y="713" type="line"/>
      <point x="492" y="608"/>
      <point x="458" y="555"/>
      <point x="402" y="469" type="curve"/>
      <point x="318" y="339" type="line"/>
      <point x="312" y="339" type="line"/>
      <point x="225" y="474" type="line"/>
      <point x="172" y="556"/>
      <point x="140" y="607"/>
      <point x="75" y="713" type="curve"/>
      <point x="31" y="713" type="line"/>
      <point x="75" y="649"/>
      <point x="104" y="604"/>
      <point x="138" y="551" type="curve"/>
    </contour>
    <contour>
      <point x="297" y="0" type="curve"/>
      <point x="334" y="0" type="line"/>
      <point x="331" y="81"/>
      <point x="331" y="151"/>
      <point x="331" y="238" type="curve"/>
      <point x="331" y="326" type="line"/>
      <point x="299" y="326" type="line"/>
      <point x="299" y="238" type="line"/>
      <point x="299" y="151"/>
      <point x="299" y="81"/>
    </contour>
  </outline>
</glyph>
<glyph name="bracketleft" format="2">
  <advance width="345"/>
  <unicode hex="005B"/>
  <outline>
    <contour>
      <point x="109" y="-112" type="curve"/>
      <point x="145" y="-112" type="line"/>
      <point x="145" y="-108" type="line"/>
      <point x="142" y="-27"/>
      <point x="142" y="43"/>
      <point x="142" y="130" type="curve"/>
      <point x="142" y="519" type="line"/>
      <point x="142" y="606"/>
      <point x="142" y="676"/>
      <point x="145" y="757" type="curve"/>
      <point x="145" y="760" type="line"/>
      <point x="109" y="760" type="line"/>
      <point x="111" y="679"/>
      <point x="111" y="609"/>
      <point x="111" y="522" type="curve"/>
      <point x="111" y="126" type="line"/>
      <point x="111" y="39"/>
      <point x="111" y="-31"/>
    </contour>
    <contour>
      <point x="136" y="-112" type="line"/>
      <point x="334" y="-112" type="line"/>
      <point x="334" y="-81" type="line"/>
      <point x="285" y="-82"/>
      <point x="233" y="-82"/>
      <point x="174" y="-82" type="curve"/>
      <point x="136" y="-82" type="line"/>
    </contour>
    <contour>
      <point x="136" y="730" type="line"/>
      <point x="171" y="730" type="line"/>
      <point x="241" y="730"/>
      <point x="289" y="730"/>
      <point x="335" y="729" type="curve"/>
      <point x="335" y="760" type="line"/>
      <point x="136" y="760" type="line"/>
    </contour>
  </outline>
</glyph>
<glyph name="e" format="2">
  <advance width="528"/>
  <unicode hex="0065"/>
  <anchor x="289" y="0" name="bottom"/>
  <anchor x="369" y="0" name="ogonek"/>
  <anchor x="279" y="494" name="top"/>
  <outline>
    <contour>
      <point x="309" y="-9" type="curve" smooth="yes"/>
      <point x="368" y="-9"/>
      <point x="425" y="13"/>
      <point x="463" y="26" type="curve"/>
      <point x="460" y="63" type="line"/>
      <point x="406" y="37"/>
      <point x="353" y="23"/>
      <point x="309" y="23" type="curve" smooth="yes"/>
      <point x="162" y="23"/>
      <point x="93" y="111"/>
      <point x="93" y="249" type="curve"/>
      <point x="93" y="251" type="line"/>
      <point x="93" y="379"/>
      <point x="161" y="469"/>
      <point x="283" y="472" type="curve"/>
      <point x="379" y="469"/>
      <point x="443" y="416"/>
      <point x="443" y="295" type="curve" smooth="yes"/>
      <point x="443" y="285"/>
      <point x="443" y="275"/>
      <point x="442" y="264" type="curve"/>
      <point x="469" y="237" type="line"/>
      <point x="472" y="256"/>
      <point x="473" y="274"/>
      <point x="473" y="297" type="curve" smooth="yes"/>
      <point x="473" y="427"/>
      <point x="399" y="504"/>
      <point x="282" y="504" type="curve" smooth="yes"/>
      <point x="151" y="504"/>
      <point x="62" y="398"/>
      <point x="62" y="251" type="curve" smooth="yes"/>
      <point x="62" y="101"/>
      <point x="143" y="-9"/>
    </contour>
    <contour>
      <point x="78" y="237" type="line"/>
      <point x="469" y="237" type="line"/>
      <point x="469" y="268" type="line"/>
      <point x="447" y="267" type="line"/>
      <point x="78" y="267" type="line"/>
    </contour>
  </outline>
</glyph>
<glyph name="g" format="2">
  <advance width="536"/>
  <unicode hex="0067"/>
  <anchor x="266" y="-192" name="bottom"/>
  <anchor x="249" y="494" name="top"/>
  <outline>
    <contour>
      <point x="247" y="-202" type="curve" smooth="yes"/>
      <point x="353" y="-202"/>
      <point x="478" y="-145"/>
      <point x="478" y="-46" type="curve" smooth="yes"/>
      <point x="478" y="24"/>
      <point x="428" y="55"/>
      <point x="281" y="55" type="curve" smooth="yes"/>
      <point x="258" y="55" type="line" smooth="yes"/>
      <point x="172" y="55"/>
      <point x="139" y="67"/>
      <point x="139" y="106" type="curve" smooth="yes"/>
      <point x="139" y="144"/>
      <point x="176" y="157"/>
      <point x="259" y="177" type="curve" smooth="yes"/>
      <point x="361" y="201"/>
      <point x="420" y="247"/>
      <point x="420" y="342" type="curve" smooth="yes"/>
      <point x="420" y="400"/>
      <point x="392" y="453"/>
      <point x="321" y="482" type="curve"/>
      <point x="310" y="470" type="line"/>
      <point x="377" y="468"/>
      <point x="444" y="466"/>
      <point x="513" y="462" type="curve"/>
      <point x="513" y="494" type="line"/>
      <point x="345" y="494" type="line" smooth="yes"/>
      <point x="299" y="494"/>
      <point x="280" y="504"/>
      <point x="239" y="504" type="curve" smooth="yes"/>
      <point x="141" y="504"/>
      <point x="60" y="444"/>
      <point x="60" y="346" type="curve" smooth="yes"/>
      <point x="60" y="247"/>
      <point x="150" y="199"/>
      <point x="179" y="188" type="curve"/>
      <point x="179" y="183" type="line"/>
      <point x="134" y="168"/>
      <point x="108" y="145"/>
      <point x="108" y="106" type="curve" smooth="yes"/>
      <point x="108" y="61"/>
      <point x="143" y="41"/>
      <point x="162" y="36" type="curve"/>
      <point x="162" y="31" type="line"/>
      <point x="127" y="20"/>
      <point x="62" y="-15"/>
      <point x="62" y="-83" type="curve" smooth="yes"/>
      <point x="62" y="-139"/>
      <point x="102" y="-202"/>
    </contour>
    <contour>
      <point x="245" y="-170" type="curve"/>
      <point x="127" y="-168"/>
      <point x="93" y="-129"/>
      <point x="93" y="-82" type="curve" smooth="yes"/>
      <point x="93" y="-16"/>
      <point x="173" y="11"/>
      <point x="229" y="24" type="curve"/>
      <point x="282" y="24" type="line" smooth="yes"/>
      <point x="416" y="24"/>
      <point x="447" y="4"/>
      <point x="447" y="-48" type="curve" smooth="yes"/>
      <point x="447" y="-102"/>
      <point x="377" y="-168"/>
    </contour>
    <contour>
      <point x="231" y="200" type="curve"/>
      <point x="165" y="218"/>
      <point x="91" y="262"/>
      <point x="91" y="346" type="curve" smooth="yes"/>
      <point x="91" y="434"/>
      <point x="159" y="471"/>
      <point x="242" y="472" type="curve"/>
      <point x="303" y="469"/>
      <point x="389" y="436"/>
      <point x="389" y="342" type="curve" smooth="yes"/>
      <point x="389" y="235"/>
      <point x="296" y="214"/>
    </contour>
  </outline>
</glyph>
<glyph name="h" format="2">
  <advance width="568"/>
  <unicode hex="0068"/>
  <guideline x="42" y="714" angle="15.2551"/>
  <anchor x="289" y="0" name="bottom"/>
  <anchor x="289" y="409" name="center"/>
  <anchor x="272" y="723" name="top"/>
  <outline>
    <contour>
      <point x="102" y="0" type="curve"/>
      <point x="137" y="0" type="line"/>
      <point x="134" y="75"/>
      <point x="134" y="140"/>
      <point x="134" y="221" type="curve"/>
      <point x="134" y="346" type="line"/>
      <point x="184" y="418"/>
      <point x="268" y="472"/>
      <point x="325" y="472" type="curve" smooth="yes"/>
      <point x="418" y="472"/>
      <point x="448" y="422"/>
      <point x="448" y="326" type="curve"/>
      <point x="448" y="221" type="line"/>
      <point x="448" y="140"/>
      <point x="448" y="75"/>
      <point x="446" y="0" type="curve"/>
      <point x="481" y="0" type="line"/>
      <point x="478" y="75"/>
      <point x="478" y="140"/>
      <point x="478" y="221" type="curve"/>
      <point x="478" y="247"/>
      <point x="479" y="283"/>
      <point x="479" y="326" type="curve" smooth="yes"/>
      <point x="479" y="440"/>
      <point x="437" y="504"/>
      <point x="326" y="504" type="curve" smooth="yes"/>
      <point x="252" y="504"/>
      <point x="176" y="442"/>
      <point x="140" y="400" type="curve"/>
      <point x="134" y="400" type="line"/>
      <point x="134" y="494" type="line"/>
      <point x="134" y="579"/>
      <point x="134" y="658"/>
      <point x="137" y="740" type="curve"/>
      <point x="98" y="729" type="line"/>
      <point x="102" y="657"/>
      <point x="104" y="579"/>
      <point x="104" y="494" type="curve"/>
      <point x="104" y="221" type="line"/>
      <point x="104" y="140"/>
      <point x="104" y="75"/>
    </contour>
  </outline>
</glyph>
<glyph name="l" format="2">
  <advance width="238"/>
  <unicode hex="006C"/>
  <anchor x="119" y="0" name="bottom"/>
  <anchor x="119" y="409" name="center"/>
  <anchor x="119" y="723" name="top"/>
  <anchor x="194" y="494" name="topright"/>
  <outline>
    <contour>
      <point x="102" y="0" type="curve"/>
      <point x="137" y="0" type="line"/>
      <point x="134" y="75"/>
      <point x="134" y="140"/>
      <point x="134" y="221" type="curve"/>
      <point x="134" y="494" type="line"/>
      <point x="134" y="579"/>
      <point x="134" y="658"/>
      <point x="137" y="740" type="curve"/>
      <point x="98" y="729" type="line"/>
      <point x="102" y="657"/>
      <point x="104" y="579"/>
      <point x="104" y="494" type="curve"/>
      <point x="104" y="221" type="line"/>
      <point x="104" y="140"/>
      <point x="104" y="75"/>
    </contour>
  </outline>
</glyph>
<glyph name="n" format="2">
  <advance width="574"/>
  <unicode hex="006E"/>
  <anchor x="294" y="0" name="bottom"/>
  <anchor x="294" y="494" name="top"/>
  <outline>
    <contour>
      <point x="108" y="0" type="curve"/>
      <point x="143" y="0" type="line"/>
      <point x="140" y="75"/>
      <point x="140" y="140"/>
      <point x="140" y="221" type="curve"/>
      <point x="140" y="346" type="line"/>
      <point x="190" y="418"/>
      <point x="274" y="472"/>
      <point x="331" y="472" type="curve" smooth="yes"/>
      <point x="424" y="472"/>
      <point x="454" y="422"/>
      <point x="454" y="326" type="curve"/>
      <point x="454" y="221" type="line"/>
      <point x="454" y="140"/>
      <point x="454" y="75"/>
      <point x="452" y="0" type="curve"/>
      <point x="487" y="0" type="line"/>
      <point x="484" y="75"/>
      <point x="484" y="140"/>
      <point x="484" y="221" type="curve"/>
      <point x="484" y="247"/>
      <point x="485" y="283"/>
      <point x="485" y="326" type="curve" smooth="yes"/>
      <point x="485" y="440"/>
      <point x="443" y="504"/>
      <point x="332" y="504" type="curve" smooth="yes"/>
      <point x="258" y="504"/>
      <point x="182" y="442"/>
      <point x="146" y="400" type="curve"/>
      <point x="140" y="400" type="line"/>
      <point x="131" y="497" type="line"/>
      <point x="101" y="494" type="line"/>
      <point x="108" y="420"/>
      <point x="110" y="342"/>
      <point x="110" y="271" type="curve"/>
      <point x="110" y="221" type="line"/>
      <point x="110" y="140"/>
      <point x="110" y="75"/>
    </contour>
  </outline>
</glyph>
<glyph name="p" format="2">
  <advance width="596"/>
  <unicode hex="0070"/>
  <outline>
    <contour>
      <point x="107" y="-194" type="curve"/>
      <point x="143" y="-192" type="line"/>
      <point x="140" y="-117"/>
      <point x="140" y="-52"/>
      <point x="140" y="29" type="curve"/>
      <point x="140" y="71" type="line"/>
      <point x="146" y="71" type="line"/>
      <point x="195" y="19"/>
      <point x="255" y="-9"/>
      <point x="313" y="-9" type="curve" smooth="yes"/>
      <point x="459" y="-9"/>
      <point x="534" y="110"/>
      <point x="534" y="249" type="curve" smooth="yes"/>
      <point x="534" y="396"/>
      <point x="450" y="504"/>
      <point x="311" y="504" type="curve" smooth="yes"/>
      <point x="239" y="504"/>
      <point x="182" y="466"/>
      <point x="143" y="431" type="curve"/>
      <point x="137" y="431" type="line"/>
      <point x="131" y="497" type="line"/>
      <point x="101" y="494" type="line"/>
      <point x="108" y="420"/>
      <point x="110" y="342"/>
      <point x="110" y="271" type="curve"/>
      <point x="110" y="29" type="line"/>
      <point x="110" y="-52"/>
      <point x="110" y="-119"/>
    </contour>
    <contour>
      <point x="313" y="23" type="curve"/>
      <point x="248" y="23"/>
      <point x="188" y="58"/>
      <point x="140" y="124" type="curve"/>
      <point x="140" y="384" type="line"/>
      <point x="189" y="443"/>
      <point x="255" y="471"/>
      <point x="311" y="472" type="curve"/>
      <point x="442" y="469"/>
      <point x="503" y="372"/>
      <point x="503" y="249" type="curve" smooth="yes"/>
      <point x="503" y="131"/>
      <point x="447" y="26"/>
    </contour>
  </outline>
</glyph>
<glyph name="q" format="2">
  <advance width="585"/>
  <unicode hex="0071"/>
  <outline>
    <contour>
      <point x="453" y="-194" type="curve"/>
      <point x="489" y="-192" type="line"/>
      <point x="486" y="-117"/>
      <point x="486" y="-52"/>
      <point x="486" y="29" type="curve"/>
      <point x="486" y="271" type="line"/>
      <point x="486" y="343"/>
      <point x="488" y="422"/>
      <point x="495" y="497" type="curve"/>
      <point x="465" y="494" type="line"/>
      <point x="459" y="431" type="line"/>
      <point x="453" y="431" type="line"/>
      <point x="414" y="466"/>
      <point x="357" y="504"/>
      <point x="285" y="504" type="curve" smooth="yes"/>
      <point x="146" y="504"/>
      <point x="62" y="396"/>
      <point x="62" y="249" type="curve" smooth="yes"/>
      <point x="62" y="110"/>
      <point x="137" y="-9"/>
      <point x="283" y="-9" type="curve" smooth="yes"/>
      <point x="341" y="-9"/>
      <point x="401" y="19"/>
      <point x="450" y="71" type="curve"/>
      <point x="456" y="71" type="line"/>
      <point x="456" y="29" type="line"/>
      <point x="456" y="-52"/>
      <point x="456" y="-119"/>
    </contour>
    <contour>
      <point x="283" y="23" type="curve"/>
      <point x="149" y="26"/>
      <point x="93" y="131"/>
      <point x="93" y="249" type="curve" smooth="yes"/>
      <point x="93" y="372"/>
      <point x="154" y="469"/>
      <point x="285" y="472" type="curve"/>
      <point x="341" y="471"/>
      <point x="407" y="443"/>
      <point x="456" y="384" type="curve"/>
      <point x="456" y="124" type="line"/>
      <point x="408" y="58"/>
      <point x="348" y="23"/>
    </contour>
  </outline>
</glyph>
<glyph name="u" format="2">
  <advance width="549"/>
  <unicode hex="0075"/>
  <anchor x="275" y="0" name="bottom"/>
  <anchor x="462" y="0" name="ogonek"/>
  <anchor x="275" y="494" name="top"/>
  <anchor x="518" y="494" name="topright"/>
  <outline>
    <contour>
      <point x="242" y="-9" type="curve" smooth="yes"/>
      <point x="311" y="-9"/>
      <point x="387" y="53"/>
      <point x="423" y="95" type="curve"/>
      <point x="429" y="95" type="line"/>
      <point x="432" y="0" type="line"/>
      <point x="462" y="0" type="line"/>
      <point x="459" y="75"/>
      <point x="459" y="140"/>
      <point x="459" y="221" type="curve" smooth="yes"/>
      <point x="459" y="271" type="line"/>
      <point x="459" y="352"/>
      <point x="459" y="419"/>
      <point x="462" y="494" type="curve"/>
      <point x="426" y="494" type="line"/>
      <point x="429" y="419"/>
      <point x="429" y="352"/>
      <point x="429" y="271" type="curve"/>
      <point x="429" y="149" type="line"/>
      <point x="379" y="77"/>
      <point x="295" y="23"/>
      <point x="243" y="23" type="curve" smooth="yes"/>
      <point x="150" y="23"/>
      <point x="120" y="73"/>
      <point x="120" y="169" type="curve"/>
      <point x="120" y="271" type="line"/>
      <point x="120" y="352"/>
      <point x="120" y="421"/>
      <point x="123" y="496" type="curve"/>
      <point x="87" y="494" type="line"/>
      <point x="90" y="419"/>
      <point x="90" y="352"/>
      <point x="90" y="271" type="curve"/>
      <point x="90" y="242"/>
      <point x="89" y="212"/>
      <point x="89" y="169" type="curve" smooth="yes"/>
      <point x="89" y="55"/>
      <point x="131" y="-9"/>
    </contour>
  </outline>
</glyph>
<glyph name="y" format="2">
  <advance width="500"/>
  <unicode hex="0079"/>
  <anchor x="350" y="0" name="bottom"/>
  <anchor x="250" y="494" name="top"/>
  <outline>
    <contour>
      <point x="150" y="-194" type="curve"/>
      <point x="189" y="-192" type="line"/>
      <point x="217" y="-120"/>
      <point x="249" y="-39"/>
      <point x="300" y="88" type="curve"/>
      <point x="356" y="227" type="line"/>
      <point x="406" y="352"/>
      <point x="431" y="413"/>
      <point x="467" y="494" type="curve"/>
      <point x="428" y="494" type="line"/>
      <point x="394" y="401"/>
      <point x="358" y="310"/>
      <point x="320" y="215" type="curve"/>
      <point x="247" y="35" type="line"/>
      <point x="241" y="35" type="line"/>
      <point x="174" y="214" type="line"/>
      <point x="138" y="310"/>
      <point x="105" y="400"/>
      <point x="70" y="496" type="curve"/>
      <point x="33" y="494" type="line"/>
      <point x="63" y="423"/>
      <point x="92" y="347"/>
      <point x="119" y="276" type="curve"/>
      <point x="153" y="186" type="line"/>
      <point x="178" y="120"/>
      <point x="205" y="49"/>
      <point x="230" y="-19" type="curve"/>
      <point x="231" y="-4" type="line"/>
      <point x="206" y="-67"/>
      <point x="178" y="-131"/>
    </contour>
  </outline>
</glyph>
<glyph name="z" format="2">
  <advance width="482"/>
  <unicode hex="007A"/>
  <guideline x="218" y="249" angle="232.6668"/>
  <guideline x="260" y="255" angle="52.6668"/>
  <anchor x="239" y="0" name="bottom"/>
  <anchor x="239" y="247" name="center"/>
  <anchor x="239" y="494" name="top"/>
  <outline>
    <contour>
      <point x="44" y="0" type="line"/>
      <point x="442" y="0" type="line"/>
      <point x="442" y="31" type="line"/>
      <point x="368" y="29"/>
      <point x="268" y="28"/>
      <point x="208" y="28" type="curve"/>
      <point x="75" y="28" type="line"/>
      <point x="80" y="19" type="line"/>
      <point x="260" y="255" type="line"/>
      <point x="314" y="326"/>
      <point x="383" y="415"/>
      <point x="425" y="469" type="curve"/>
      <point x="425" y="494" type="line"/>
      <point x="44" y="494" type="line"/>
      <point x="44" y="463" type="line"/>
      <point x="124" y="466"/>
      <point x="225" y="466"/>
      <point x="284" y="466" type="curve"/>
      <point x="404" y="466" type="line"/>
      <point x="397" y="484" type="line"/>
      <point x="218" y="249" type="line"/>
      <point x="167" y="182"/>
      <point x="106" y="104"/>
      <point x="44" y="23" type="curve"/>
    </contour>
  </outline>
</glyph>
<glyph name="braceleft" format="2">
  <advance width="372"/>
  <unicode hex="007B"/>
  <outline>
    <contour>
      <point x="285" y="-112" type="curve" smooth="yes"/>
      <point x="362" y="-112" type="line"/>
      <point x="362" y="-81" type="line"/>
      <point x="328" y="-82"/>
      <point x="302" y="-82"/>
      <point x="285" y="-82" type="curve"/>
      <point x="211" y="-81"/>
      <point x="174" y="-49"/>
      <point x="174" y="13" type="curve" smooth="yes"/>
      <point x="173" y="203" type="line" smooth="yes"/>
      <point x="173" y="281"/>
      <point x="142" y="302"/>
      <point x="101" y="321" type="curve"/>
      <point x="101" y="327" type="line"/>
      <point x="142" y="345"/>
      <point x="173" y="367"/>
      <point x="173" y="444" type="curve" smooth="yes"/>
      <point x="174" y="635" type="line" smooth="yes"/>
      <point x="174" y="697"/>
      <point x="211" y="729"/>
      <point x="285" y="730" type="curve"/>
      <point x="303" y="730"/>
      <point x="330" y="730"/>
      <point x="362" y="729" type="curve"/>
      <point x="362" y="760" type="line"/>
      <point x="285" y="760" type="line" smooth="yes"/>
      <point x="196" y="760"/>
      <point x="141" y="715"/>
      <point x="141" y="635" type="curve"/>
      <point x="141" y="572"/>
      <point x="142" y="509"/>
      <point x="142" y="446" type="curve"/>
      <point x="142" y="366"/>
      <point x="89" y="338"/>
      <point x="38" y="338" type="curve" smooth="yes"/>
      <point x="10" y="338" type="line"/>
      <point x="10" y="309" type="line"/>
      <point x="38" y="309" type="line" smooth="yes"/>
      <point x="89" y="309"/>
      <point x="142" y="281"/>
      <point x="142" y="201" type="curve"/>
      <point x="142" y="138"/>
      <point x="141" y="76"/>
      <point x="141" y="13" type="curve"/>
      <point x="141" y="-67"/>
      <point x="196" y="-112"/>
    </contour>
  </outline>
</glyph>
<glyph name="sterling" format="2">
  <advance width="579"/>
  <unicode hex="00A3"/>
  <outline>
    <contour>
      <point x="75" y="0" type="line"/>
      <point x="544" y="0" type="line"/>
      <point x="544" y="33" type="line"/>
      <point x="455" y="30"/>
      <point x="377" y="30"/>
      <point x="244" y="30" type="curve"/>
      <point x="96" y="30" type="line"/>
      <point x="101" y="11" type="line"/>
      <point x="180" y="92"/>
      <point x="186" y="159"/>
      <point x="186" y="219" type="curve" smooth="yes"/>
      <point x="186" y="458" type="line" smooth="yes"/>
      <point x="186" y="600"/>
      <point x="244" y="663"/>
      <point x="363" y="664" type="curve"/>
      <point x="389" y="664"/>
      <point x="444" y="652"/>
      <point x="508" y="623" type="curve"/>
      <point x="513" y="658" type="line"/>
      <point x="474" y="673"/>
      <point x="412" y="696"/>
      <point x="362" y="696" type="curve" smooth="yes"/>
      <point x="237" y="696"/>
      <point x="154" y="622"/>
      <point x="154" y="462" type="curve" smooth="yes"/>
      <point x="154" y="381"/>
      <point x="155" y="301"/>
      <point x="155" y="220" type="curve"/>
      <point x="155" y="170"/>
      <point x="150" y="100"/>
      <point x="75" y="27" type="curve"/>
    </contour>
    <contour>
      <point x="66" y="367" type="line"/>
      <point x="124" y="369"/>
      <point x="179" y="369"/>
      <point x="226" y="369" type="curve"/>
      <point x="256" y="369" type="line"/>
      <point x="303" y="369"/>
      <point x="358" y="369"/>
      <point x="416" y="367" type="curve"/>
      <point x="416" y="399" type="line"/>
      <point x="358" y="397"/>
      <point x="303" y="397"/>
      <point x="256" y="397" type="curve"/>
      <point x="226" y="397" type="line"/>
      <point x="179" y="397"/>
      <point x="124" y="397"/>
      <point x="66" y="399" type="curve"/>
    </contour>
  </outline>
</glyph>
<glyph name="currency" format="2">
  <advance width="600"/>
  <unicode hex="00A4"/>
  <outline>
    <contour>
      <point x="298" y="130" type="curve" smooth="yes"/>
      <point x="406" y="130"/>
      <point x="487" y="204"/>
      <point x="487" y="320" type="curve" smooth="yes"/>
      <point x="487" y="433"/>
      <point x="407" y="511"/>
      <point x="300" y="511" type="curve" smooth="yes"/>
      <point x="191" y="511"/>
      <point x="111" y="432"/>
      <point x="111" y="320" type="curve" smooth="yes"/>
      <point x="111" y="204"/>
      <point x="191" y="130"/>
    </contour>
    <contour>
      <point x="79" y="76" type="line"/>
      <point x="118" y="118"/>
      <point x="157" y="157"/>
      <point x="190" y="190" type="curve"/>
      <point x="169" y="211" type="line"/>
      <point x="136" y="178"/>
      <point x="97" y="139"/>
      <point x="55" y="100" type="curve"/>
    </contour>
    <contour>
      <point x="298" y="162" type="curve"/>
      <point x="212" y="164"/>
      <point x="143" y="212"/>
      <point x="143" y="320" type="curve" smooth="yes"/>
      <point x="143" y="422"/>
      <point x="213" y="477"/>
      <point x="300" y="479" type="curve"/>
      <point x="386" y="477"/>
      <point x="455" y="422"/>
      <point x="455" y="320" type="curve" smooth="yes"/>
      <point x="455" y="212"/>
      <point x="386" y="164"/>
    </contour>
    <contour>
      <point x="169" y="431" type="curve"/>
      <point x="190" y="452" type="line"/>
      <point x="157" y="485"/>
      <point x="118" y="524"/>
      <point x="79" y="566" type="curve"/>
      <point x="55" y="542" type="line"/>
      <point x="97" y="503"/>
      <point x="136" y="464"/>
    </contour>
    <contour>
      <point x="521" y="76" type="curve"/>
      <point x="545" y="100" type="line"/>
      <point x="503" y="139"/>
      <point x="464" y="178"/>
      <point x="431" y="211" type="curve"/>
      <point x="410" y="190" type="line"/>
      <point x="443" y="157"/>
      <point x="482" y="118"/>
    </contour>
    <contour>
      <point x="431" y="431" type="line"/>
      <point x="464" y="464"/>
      <point x="503" y="503"/>
      <point x="545" y="542" type="curve"/>
      <point x="521" y="566" type="line"/>
      <point x="482" y="524"/>
      <point x="443" y="485"/>
      <point x="410" y="452" type="curve"/>
    </contour>
  </outline>
</glyph>
<glyph name="brokenbar" format="2">
  <advance width="250"/>
  <unicode hex="00A6"/>
  <outline>
    <contour>
      <point x="110" y="366" type="line"/>
      <point x="140" y="366" type="line"/>
      <point x="140" y="457" type="line"/>
      <point x="140" y="565"/>
      <point x="140" y="668"/>
      <point x="142" y="786" type="curve"/>
      <point x="108" y="786" type="line"/>
      <point x="110" y="668"/>
      <point x="110" y="565"/>
      <point x="110" y="457" type="curve"/>
    </contour>
    <contour>
      <point x="108" y="-154" type="curve"/>
      <point x="142" y="-154" type="line"/>
      <point x="140" y="-36"/>
      <point x="140" y="67"/>
      <point x="140" y="175" type="curve"/>
      <point x="140" y="266" type="line"/>
      <point x="110" y="266" type="line"/>
      <point x="110" y="175" type="line"/>
      <point x="110" y="67"/>
      <point x="110" y="-36"/>
    </contour>
  </outline>
</glyph>
<glyph name="copyright" format="2">
  <advance width="829"/>
  <unicode hex="00A9"/>
  <outline>
    <contour>
      <point x="418" y="-9" type="curve" smooth="yes"/>
      <point x="633" y="-9"/>
      <point x="769" y="142"/>
      <point x="769" y="344" type="curve" smooth="yes"/>
      <point x="769" y="540"/>
      <point x="639" y="696"/>
      <point x="416" y="696" type="curve" smooth="yes"/>
      <point x="197" y="696"/>
      <point x="60" y="543"/>
      <point x="60" y="344" type="curve" smooth="yes"/>
      <point x="60" y="151"/>
      <point x="185" y="-9"/>
    </contour>
    <contour>
      <point x="425" y="156" type="curve" smooth="yes"/>
      <point x="468" y="156"/>
      <point x="506" y="172"/>
      <point x="532" y="182" type="curve"/>
      <point x="526" y="217" type="line"/>
      <point x="490" y="198"/>
      <point x="456" y="187"/>
      <point x="425" y="187" type="curve"/>
      <point x="329" y="189"/>
      <point x="278" y="249"/>
      <point x="278" y="345" type="curve" smooth="yes"/>
      <point x="278" y="448"/>
      <point x="337" y="500"/>
      <point x="419" y="502" type="curve"/>
      <point x="438" y="502"/>
      <point x="479" y="493"/>
      <point x="526" y="470" type="curve"/>
      <point x="530" y="505" type="line"/>
      <point x="502" y="516"/>
      <point x="456" y="533"/>
      <point x="419" y="533" type="curve" smooth="yes"/>
      <point x="312" y="533"/>
      <point x="247" y="451"/>
      <point x="247" y="345" type="curve" smooth="yes"/>
      <point x="247" y="239"/>
      <point x="311" y="156"/>
    </contour>
    <contour>
      <point x="418" y="23" type="curve"/>
      <point x="220" y="27"/>
      <point x="92" y="142"/>
      <point x="92" y="344" type="curve" smooth="yes"/>
      <point x="92" y="541"/>
      <point x="224" y="660"/>
      <point x="416" y="664" type="curve"/>
      <point x="609" y="660"/>
      <point x="737" y="543"/>
      <point x="737" y="344" type="curve" smooth="yes"/>
      <point x="737" y="144"/>
      <point x="608" y="27"/>
    </contour>
  </outline>
</glyph>
<glyph name="plusminus" format="2">
  <advance width="560"/>
  <unicode hex="00B1"/>
  <outline>
    <contour>
      <point x="70" y="-2" type="line"/>
      <point x="128" y="0"/>
      <point x="183" y="0"/>
      <point x="230" y="0" type="curve"/>
      <point x="330" y="0" type="line"/>
      <point x="377" y="0"/>
      <point x="432" y="0"/>
      <point x="490" y="-2" type="curve"/>
      <point x="490" y="32" type="line"/>
      <point x="432" y="30"/>
      <point x="377" y="30"/>
      <point x="330" y="30" type="curve"/>
      <point x="230" y="30" type="line"/>
      <point x="183" y="30"/>
      <point x="128" y="30"/>
      <point x="70" y="32" type="curve"/>
    </contour>
    <contour>
      <point x="70" y="351" type="line"/>
      <point x="128" y="353"/>
      <point x="183" y="353"/>
      <point x="230" y="353" type="curve"/>
      <point x="330" y="353" type="line"/>
      <point x="377" y="353"/>
      <point x="432" y="353"/>
      <point x="490" y="351" type="curve"/>
      <point x="490" y="385" type="line"/>
      <point x="432" y="383"/>
      <point x="377" y="383"/>
      <point x="330" y="383" type="curve"/>
      <point x="230" y="383" type="line"/>
      <point x="183" y="383"/>
      <point x="128" y="383"/>
      <point x="70" y="385" type="curve"/>
    </contour>
    <contour>
      <point x="263" y="138" type="curve"/>
      <point x="297" y="138" type="line"/>
      <point x="295" y="196"/>
      <point x="295" y="251"/>
      <point x="295" y="298" type="curve"/>
      <point x="295" y="438" type="line"/>
      <point x="295" y="485"/>
      <point x="295" y="540"/>
      <point x="297" y="598" type="curve"/>
      <point x="263" y="598" type="line"/>
      <point x="265" y="540"/>
      <point x="265" y="485"/>
      <point x="265" y="438" type="curve"/>
      <point x="265" y="298" type="line"/>
      <point x="265" y="251"/>
      <point x="265" y="196"/>
    </contour>
  </outline>
</glyph>
<glyph name="AE" format="2">
  <advance width="956"/>
  <unicode hex="00C6"/>
  <anchor x="491" y="0" name="bottom"/>
  <anchor x="491" y="713" name="top"/>
  <outline>
    <contour>
      <point x="16" y="0" type="curve"/>
      <point x="61" y="0" type="line"/>
      <point x="112" y="90"/>
      <point x="170" y="189"/>
      <point x="221" y="276" type="curve"/>
      <point x="461" y="682" type="line"/>
      <point x="476" y="682" type="line"/>
      <point x="503" y="682" type="line"/>
      <point x="503" y="713" type="line"/>
      <point x="439" y="713" type="line"/>
      <point x="401" y="642"/>
      <point x="359" y="571"/>
      <point x="311" y="490" type="curve"/>
      <point x="164" y="242" type="line"/>
      <point x="119" y="166"/>
      <point x="65" y="76"/>
    </contour>
    <contour>
      <point x="163" y="203" type="line"/>
      <point x="492" y="203" type="line"/>
      <point x="492" y="233" type="line"/>
      <point x="163" y="233" type="line"/>
    </contour>
    <contour>
      <point x="473" y="0" type="curve"/>
      <point x="510" y="0" type="line"/>
      <point x="510" y="4" type="line"/>
      <point x="507" y="85"/>
      <point x="507" y="155"/>
      <point x="507" y="242" type="curve"/>
      <point x="507" y="472" type="line"/>
      <point x="507" y="559"/>
      <point x="507" y="629"/>
      <point x="510" y="710" type="curve"/>
      <point x="510" y="713" type="line"/>
      <point x="473" y="713" type="line"/>
      <point x="475" y="632"/>
      <point x="475" y="562"/>
      <point x="475" y="475" type="curve"/>
      <point x="475" y="238" type="line"/>
      <point x="475" y="151"/>
      <point x="475" y="81"/>
    </contour>
    <contour>
      <point x="501" y="0" type="line"/>
      <point x="893" y="0" type="line"/>
      <point x="893" y="35" type="line"/>
      <point x="816" y="32"/>
      <point x="734" y="31"/>
      <point x="641" y="31" type="curve"/>
      <point x="501" y="31" type="line"/>
    </contour>
    <contour>
      <point x="501" y="347" type="line"/>
      <point x="645" y="347" type="line"/>
      <point x="739" y="347"/>
      <point x="802" y="347"/>
      <point x="871" y="346" type="curve"/>
      <point x="871" y="381" type="line"/>
      <point x="806" y="378"/>
      <point x="742" y="378"/>
      <point x="646" y="378" type="curve"/>
      <point x="501" y="378" type="line"/>
    </contour>
    <contour>
      <point x="501" y="682" type="line"/>
      <point x="637" y="682" type="line"/>
      <point x="747" y="682"/>
      <point x="823" y="681"/>
      <point x="894" y="678" type="curve"/>
      <point x="894" y="713" type="line"/>
      <point x="501" y="713" type="line"/>
    </contour>
  </outline>
</glyph>
<glyph name="germandbls" format="2">
  <advance width="601"/>
  <unicode hex="00DF"/>
  <outline>
    <contour>
      <point x="328" y="-4" type="curve" smooth="yes"/>
      <point x="460" y="-4"/>
      <point x="539" y="82"/>
      <point x="539" y="207" type="curve" smooth="yes"/>
      <point x="539" y="345"/>
      <point x="440" y="392"/>
      <point x="384" y="407" type="curve"/>
      <point x="384" y="413" type="line"/>
      <point x="429" y="432"/>
      <point x="492" y="478"/>
      <point x="492" y="575" type="curve" smooth="yes"/>
      <point x="492" y="678"/>
      <point x="419" y="744"/>
      <point x="316" y="744" type="curve" smooth="yes"/>
      <point x="197" y="744"/>
      <point x="121" y="664"/>
      <point x="121" y="516" type="curve" smooth="yes"/>
      <point x="121" y="434"/>
      <point x="122" y="352"/>
      <point x="122" y="271" type="curve"/>
      <point x="122" y="221" type="line"/>
      <point x="122" y="140"/>
      <point x="122" y="75"/>
      <point x="120" y="0" type="curve"/>
      <point x="155" y="0" type="line"/>
      <point x="152" y="75"/>
      <point x="152" y="140"/>
      <point x="152" y="221" type="curve"/>
      <point x="152" y="511" type="line" smooth="yes"/>
      <point x="152" y="646"/>
      <point x="208" y="711"/>
      <point x="316" y="712" type="curve"/>
      <point x="406" y="711"/>
      <point x="461" y="660"/>
      <point x="461" y="576" type="curve" smooth="yes"/>
      <point x="461" y="475"/>
      <point x="380" y="423"/>
      <point x="293" y="422" type="curve"/>
      <point x="293" y="392" type="line"/>
      <point x="413" y="391"/>
      <point x="508" y="334"/>
      <point x="508" y="207" type="curve" smooth="yes"/>
      <point x="508" y="95"/>
      <point x="442" y="27"/>
      <point x="328" y="27" type="curve"/>
      <point x="306" y="27"/>
      <point x="285" y="31"/>
      <point x="271" y="34" type="curve"/>
      <point x="271" y="1" type="line"/>
      <point x="286" y="-2"/>
      <point x="308" y="-4"/>
    </contour>
    <contour>
      <point x="29" y="463" type="line"/>
      <point x="131" y="468" type="line"/>
      <point x="131" y="494" type="line"/>
      <point x="29" y="494" type="line"/>
    </contour>
  </outline>
</glyph>
<glyph name="oslash" format="2">
  <advance width="597"/>
  <unicode hex="00F8"/>
  <anchor x="298" y="494" name="top"/>
  <outline>
    <contour>
      <point x="300" y="-9" type="curve" smooth="yes"/>
      <point x="440" y="-9"/>
      <point x="535" y="106"/>
      <point x="535" y="251" type="curve" smooth="yes"/>
      <point x="535" y="395"/>
      <point x="444" y="504"/>
      <point x="300" y="504" type="curve" smooth="yes"/>
      <point x="160" y="504"/>
      <point x="62" y="399"/>
      <point x="62" y="251" type="curve" smooth="yes"/>
      <point x="62" y="113"/>
      <point x="150" y="-9"/>
    </contour>
    <contour>
      <point x="300" y="23" type="curve"/>
      <point x="158" y="26"/>
      <point x="93" y="134"/>
      <point x="93" y="251" type="curve" smooth="yes"/>
      <point x="93" y="374"/>
      <point x="162" y="469"/>
      <point x="300" y="472" type="curve"/>
      <point x="429" y="469"/>
      <point x="504" y="382"/>
      <point x="504" y="251" type="curve" smooth="yes"/>
      <point x="504" y="134"/>
      <point x="441" y="26"/>
    </contour>
    <contour>
      <point x="93" y="-58" type="line"/>
      <point x="140" y="8"/>
      <point x="183" y="64"/>
      <point x="236" y="133" type="curve"/>
      <point x="379" y="320" type="line"/>
      <point x="432" y="389"/>
      <point x="479" y="449"/>
      <point x="529" y="511" type="curve"/>
      <point x="501" y="531" type="line"/>
      <point x="455" y="468"/>
      <point x="412" y="411"/>
      <point x="357" y="339" type="curve"/>
      <point x="213" y="151" type="line"/>
      <point x="161" y="83"/>
      <point x="118" y="28"/>
      <point x="66" y="-37" type="curve"/>
    </contour>
  </outline>
</glyph>
<glyph name="thorn" format="2">
  <advance width="590"/>
  <unicode hex="00FE"/>
  <outline>
    <contour>
      <point x="101" y="-194" type="curve"/>
      <point x="137" y="-192" type="line"/>
      <point x="134" y="-117"/>
      <point x="134" y="-52"/>
      <point x="134" y="29" type="curve"/>
      <point x="134" y="71" type="line"/>
      <point x="140" y="71" type="line"/>
      <point x="189" y="19"/>
      <point x="249" y="-9"/>
      <point x="307" y="-9" type="curve" smooth="yes"/>
      <point x="453" y="-9"/>
      <point x="528" y="110"/>
      <point x="528" y="249" type="curve" smooth="yes"/>
      <point x="528" y="396"/>
      <point x="444" y="504"/>
      <point x="305" y="504" type="curve" smooth="yes"/>
      <point x="233" y="504"/>
      <point x="179" y="468"/>
      <point x="140" y="433" type="curve"/>
      <point x="134" y="433" type="line"/>
      <point x="134" y="494" type="line"/>
      <point x="134" y="579"/>
      <point x="134" y="658"/>
      <point x="137" y="740" type="curve"/>
      <point x="98" y="729" type="line"/>
      <point x="102" y="657"/>
      <point x="104" y="579"/>
      <point x="104" y="494" type="curve"/>
      <point x="104" y="29" type="line"/>
      <point x="104" y="-52"/>
      <point x="104" y="-119"/>
    </contour>
    <contour>
      <point x="307" y="23" type="curve"/>
      <point x="242" y="23"/>
      <point x="182" y="58"/>
      <point x="134" y="124" type="curve"/>
      <point x="134" y="384" type="line"/>
      <point x="183" y="443"/>
      <point x="249" y="471"/>
      <point x="305" y="472" type="curve"/>
      <point x="436" y="469"/>
      <point x="497" y="372"/>
      <point x="497" y="249" type="curve" smooth="yes"/>
      <point x="497" y="131"/>
      <point x="441" y="26"/>
    </contour>
  </outline>
</glyph>
<glyph name="dcroat" format="2">
  <advance width="572"/>
  <unicode hex="0111"/>
  <outline>
    <contour>
      <point x="257" y="610" type="line"/>
      <point x="312" y="612"/>
      <point x="363" y="612"/>
      <point x="406" y="612" type="curve"/>
      <point x="448" y="612" type="line"/>
      <point x="491" y="612"/>
      <point x="542" y="612"/>
      <point x="597" y="610" type="curve"/>
      <point x="597" y="640" type="line"/>
      <point x="542" y="640"/>
      <point x="491" y="640"/>
      <point x="448" y="640" type="curve"/>
      <point x="406" y="640" type="line"/>
      <point x="363" y="640"/>
      <point x="312" y="640"/>
      <point x="257" y="642" type="curve"/>
    </contour>
    <contour>
      <point x="283" y="-9" type="curve" smooth="yes"/>
      <point x="341" y="-9"/>
      <point x="401" y="19"/>
      <point x="451" y="71" type="curve"/>
      <point x="457" y="71" type="line"/>
      <point x="459" y="0" type="line"/>
      <point x="489" y="0" type="line"/>
      <point x="486" y="75"/>
      <point x="486" y="140"/>
      <point x="486" y="221" type="curve"/>
      <point x="486" y="494" type="line"/>
      <point x="486" y="579"/>
      <point x="486" y="658"/>
      <point x="489" y="740" type="curve"/>
      <point x="450" y="729" type="line"/>
      <point x="454" y="657"/>
      <point x="456" y="579"/>
      <point x="456" y="494" type="curve"/>
      <point x="456" y="433" type="line"/>
      <point x="450" y="433" type="line"/>
      <point x="412" y="467"/>
      <point x="356" y="504"/>
      <point x="285" y="504" type="curve" smooth="yes"/>
      <point x="146" y="504"/>
      <point x="62" y="396"/>
      <point x="62" y="249" type="curve" smooth="yes"/>
      <point x="62" y="110"/>
      <point x="137" y="-9"/>
    </contour>
    <contour>
      <point x="283" y="23" type="curve"/>
      <point x="149" y="26"/>
      <point x="93" y="131"/>
      <point x="93" y="249" type="curve" smooth="yes"/>
      <point x="93" y="372"/>
      <point x="154" y="469"/>
      <point x="285" y="472" type="curve"/>
      <point x="341" y="471"/>
      <point x="407" y="443"/>
      <point x="456" y="384" type="curve"/>
      <point x="456" y="124" type="line"/>
      <point x="408" y="58"/>
      <point x="348" y="23"/>
    </contour>
  </outline>
</glyph>
<glyph name="kgreenlandic" format="2">
  <advance width="508"/>
  <unicode hex="0138"/>
  <outline>
    <contour>
      <point x="429" y="0" type="curve"/>
      <point x="484" y="0" type="line"/>
      <point x="412" y="57"/>
      <point x="342" y="113"/>
      <point x="273" y="170" type="curve"/>
      <point x="163" y="259" type="line"/>
      <point x="163" y="240" type="line"/>
      <point x="260" y="323" type="line"/>
      <point x="327" y="380"/>
      <point x="393" y="436"/>
      <point x="464" y="494" type="curve"/>
      <point x="411" y="494" type="line"/>
      <point x="357" y="445"/>
      <point x="299" y="395"/>
      <point x="242" y="346" type="curve"/>
      <point x="149" y="266" type="line"/>
      <point x="119" y="266" type="line"/>
      <point x="119" y="238" type="line"/>
      <point x="142" y="238" type="line"/>
      <point x="255" y="147" type="line"/>
      <point x="314" y="98"/>
      <point x="372" y="49"/>
    </contour>
    <contour>
      <point x="94" y="0" type="curve"/>
      <point x="129" y="0" type="line"/>
      <point x="126" y="75"/>
      <point x="126" y="140"/>
      <point x="126" y="221" type="curve"/>
      <point x="126" y="271" type="line"/>
      <point x="126" y="352"/>
      <point x="126" y="421"/>
      <point x="129" y="496" type="curve"/>
      <point x="93" y="494" type="line"/>
      <point x="96" y="419"/>
      <point x="96" y="352"/>
      <point x="96" y="271" type="curve"/>
      <point x="96" y="221" type="line"/>
      <point x="96" y="140"/>
      <point x="96" y="75"/>
    </contour>
  </outline>
</glyph>
<glyph name="Eng" format="2">
  <advance width="758"/>
  <unicode hex="014A"/>
  <outline>
    <contour>
      <point x="513" y="-192" type="curve"/>
      <point x="562" y="-192" type="line"/>
      <point x="598" y="-147"/>
      <point x="648" y="-73"/>
      <point x="648" y="24" type="curve" smooth="yes"/>
      <point x="648" y="89"/>
      <point x="647" y="161"/>
      <point x="647" y="238" type="curve" smooth="yes"/>
      <point x="647" y="475" type="line"/>
      <point x="647" y="562"/>
      <point x="647" y="632"/>
      <point x="650" y="713" type="curve"/>
      <point x="613" y="713" type="line"/>
      <point x="615" y="632"/>
      <point x="615" y="562"/>
      <point x="615" y="475" type="curve"/>
      <point x="615" y="62" type="line"/>
      <point x="611" y="62" type="line"/>
      <point x="426" y="319" type="line"/>
      <point x="335" y="445"/>
      <point x="243" y="575"/>
      <point x="146" y="713" type="curve"/>
      <point x="108" y="713" type="line"/>
      <point x="110" y="632"/>
      <point x="110" y="562"/>
      <point x="110" y="475" type="curve"/>
      <point x="110" y="238" type="line"/>
      <point x="110" y="151"/>
      <point x="110" y="81"/>
      <point x="108" y="0" type="curve"/>
      <point x="145" y="0" type="line"/>
      <point x="142" y="81"/>
      <point x="142" y="151"/>
      <point x="142" y="238" type="curve"/>
      <point x="142" y="655" type="line"/>
      <point x="146" y="655" type="line"/>
      <point x="331" y="396" type="line"/>
      <point x="442" y="241"/>
      <point x="531" y="116"/>
      <point x="613" y="0" type="curve"/>
      <point x="632" y="0" type="line"/>
      <point x="614" y="33" type="line"/>
      <point x="614" y="27" type="line"/>
      <point x="614" y="-69"/>
      <point x="570" y="-131"/>
    </contour>
  </outline>
</glyph>
<glyph name="oe" format="2">
  <advance width="950"/>
  <unicode hex="0153"/>
  <anchor x="513" y="0" name="bottom"/>
  <anchor x="513" y="494" name="top"/>
  <outline>
    <contour>
      <point x="290" y="-9" type="curve" smooth="yes"/>
      <point x="430" y="-9"/>
      <point x="524" y="106"/>
      <point x="524" y="251" type="curve" smooth="yes"/>
      <point x="524" y="395"/>
      <point x="434" y="504"/>
      <point x="290" y="504" type="curve" smooth="yes"/>
      <point x="150" y="504"/>
      <point x="52" y="399"/>
      <point x="52" y="251" type="curve" smooth="yes"/>
      <point x="52" y="113"/>
      <point x="140" y="-9"/>
    </contour>
    <contour>
      <point x="290" y="23" type="curve"/>
      <point x="148" y="26"/>
      <point x="83" y="134"/>
      <point x="83" y="251" type="curve" smooth="yes"/>
      <point x="83" y="374"/>
      <point x="152" y="469"/>
      <point x="290" y="472" type="curve"/>
      <point x="419" y="469"/>
      <point x="494" y="382"/>
      <point x="494" y="251" type="curve" smooth="yes"/>
      <point x="494" y="134"/>
      <point x="431" y="26"/>
    </contour>
    <contour>
      <point x="741" y="-9" type="curve" smooth="yes"/>
      <point x="800" y="-9"/>
      <point x="857" y="13"/>
      <point x="895" y="26" type="curve"/>
      <point x="892" y="63" type="line"/>
      <point x="838" y="37"/>
      <point x="785" y="23"/>
      <point x="741" y="23" type="curve" smooth="yes"/>
      <point x="594" y="23"/>
      <point x="525" y="111"/>
      <point x="525" y="249" type="curve"/>
      <point x="525" y="251" type="line"/>
      <point x="525" y="379"/>
      <point x="593" y="469"/>
      <point x="715" y="472" type="curve"/>
      <point x="811" y="469"/>
      <point x="875" y="416"/>
      <point x="875" y="295" type="curve" smooth="yes"/>
      <point x="875" y="285"/>
      <point x="875" y="275"/>
      <point x="874" y="264" type="curve"/>
      <point x="901" y="237" type="line"/>
      <point x="904" y="256"/>
      <point x="905" y="274"/>
      <point x="905" y="297" type="curve" smooth="yes"/>
      <point x="905" y="427"/>
      <point x="831" y="504"/>
      <point x="714" y="504" type="curve" smooth="yes"/>
      <point x="583" y="504"/>
      <point x="495" y="398"/>
      <point x="495" y="251" type="curve" smooth="yes"/>
      <point x="495" y="101"/>
      <point x="575" y="-9"/>
    </contour>
    <contour>
      <point x="510" y="237" type="line"/>
      <point x="901" y="237" type="line"/>
      <point x="901" y="268" type="line"/>
      <point x="879" y="267" type="line"/>
      <point x="510" y="267" type="line"/>
    </contour>
  </outline>
</glyph>
<glyph name="tbar" format="2">
  <advance width="400"/>
  <unicode hex="0167"/>
  <outline>
    <contour>
      <point x="37" y="270" type="line"/>
      <point x="88" y="272"/>
      <point x="134" y="272"/>
      <point x="172" y="272" type="curve"/>
      <point x="212" y="272" type="line"/>
      <point x="250" y="272"/>
      <point x="296" y="272"/>
      <point x="347" y="270" type="curve"/>
      <point x="347" y="302" type="line"/>
      <point x="296" y="300"/>
      <point x="250" y="300"/>
      <point x="212" y="300" type="curve"/>
      <point x="172" y="300" type="line"/>
      <point x="134" y="300"/>
      <point x="88" y="300"/>
      <point x="37" y="302" type="curve"/>
    </contour>
    <contour>
      <point x="273" y="-9" type="curve" smooth="yes"/>
      <point x="310" y="-9"/>
      <point x="350" y="5"/>
      <point x="367" y="15" type="curve"/>
      <point x="361" y="51" type="line"/>
      <point x="336" y="35"/>
      <point x="297" y="23"/>
      <point x="275" y="23" type="curve" smooth="yes"/>
      <point x="202" y="23"/>
      <point x="166" y="62"/>
      <point x="166" y="143" type="curve" smooth="yes"/>
      <point x="166" y="480" type="line"/>
      <point x="166" y="550"/>
      <point x="166" y="594"/>
      <point x="168" y="665" type="curve"/>
      <point x="133" y="654" type="line"/>
      <point x="136" y="594"/>
      <point x="136" y="542"/>
      <point x="136" y="480" type="curve"/>
      <point x="136" y="414"/>
      <point x="135" y="284"/>
      <point x="135" y="145" type="curve" smooth="yes"/>
      <point x="135" y="44"/>
      <point x="183" y="-9"/>
    </contour>
    <contour>
      <point x="29" y="463" type="line"/>
      <point x="141" y="468" type="line"/>
      <point x="149" y="468" type="line"/>
      <point x="217" y="468"/>
      <point x="290" y="467"/>
      <point x="360" y="463" type="curve"/>
      <point x="360" y="494" type="line"/>
      <point x="29" y="494" type="line"/>
    </contour>
  </outline>
</glyph>
<glyph name="gravecomb" format="2">
  <unicode hex="0300"/>
  <anchor x="300" y="494" name="_top"/>
  <anchor x="299" y="686" name="top"/>
  <outline>
    <contour>
      <point x="323" y="586" type="curve"/>
      <point x="356" y="587" type="line"/>
      <point x="307" y="651"/>
      <point x="259" y="715"/>
      <point x="214" y="779" type="curve"/>
      <point x="168" y="778" type="line"/>
      <point x="218" y="713"/>
      <point x="270" y="650"/>
    </contour>
  </outline>
</glyph>
<glyph name="circumflexcomb" format="2">
  <unicode hex="0302"/>
  <anchor x="300" y="494" name="_top"/>
  <anchor x="299" y="745" name="top"/>
  <outline>
    <contour>
      <point x="431" y="585" type="curve"/>
      <point x="464" y="586" type="line"/>
      <point x="415" y="650"/>
      <point x="368" y="714"/>
      <point x="322" y="777" type="curve"/>
      <point x="278" y="777" type="line"/>
      <point x="327" y="714"/>
      <point x="379" y="649"/>
    </contour>
    <contour>
      <point x="133" y="587" type="curve"/>
      <point x="166" y="587" type="line"/>
      <point x="219" y="651"/>
      <point x="269" y="714"/>
      <point x="319" y="777" type="curve"/>
      <point x="275" y="777" type="line"/>
      <point x="229" y="714"/>
      <point x="182" y="651"/>
    </contour>
  </outline>
</glyph>
<glyph name="pi" format="2">
  <advance width="582"/>
  <unicode hex="03C0"/>
  <outline>
    <contour>
      <point x="474" y="0" type="curve"/>
      <point x="514" y="0" type="line"/>
      <point x="464" y="67"/>
      <point x="448" y="129"/>
      <point x="448" y="192" type="curve"/>
      <point x="448" y="494" type="line"/>
      <point x="419" y="494" type="line"/>
      <point x="419" y="364"/>
      <point x="417" y="281"/>
      <point x="417" y="199" type="curve"/>
      <point x="417" y="123"/>
      <point x="435" y="54"/>
    </contour>
    <contour>
      <point x="133" y="0" type="curve"/>
      <point x="168" y="0" type="line"/>
      <point x="169" y="74"/>
      <point x="169" y="143"/>
      <point x="169" y="223" type="curve"/>
      <point x="169" y="287" type="line"/>
      <point x="169" y="362"/>
      <point x="170" y="424"/>
      <point x="176" y="494" type="curve"/>
      <point x="142" y="494" type="line"/>
      <point x="139" y="420"/>
      <point x="139" y="351"/>
      <point x="139" y="271" type="curve"/>
      <point x="139" y="223" type="line"/>
      <point x="139" y="142"/>
      <point x="137" y="75"/>
    </contour>
    <contour>
      <point x="29" y="463" type="line"/>
      <point x="151" y="466" type="line"/>
      <point x="338" y="466" type="line"/>
      <point x="406" y="466"/>
      <point x="479" y="466"/>
      <point x="549" y="463" type="curve"/>
      <point x="549" y="494" type="line"/>
      <point x="29" y="494" type="line"/>
    </contour>
  </outline>
</glyph>
<glyph name="endash" format="2">
  <advance width="570"/>
  <unicode hex="2013"/>
  <outline>
    <contour>
      <point x="70" y="279" type="line"/>
      <point x="128" y="281"/>
      <point x="183" y="281"/>
      <point x="230" y="281" type="curve"/>
      <point x="340" y="281" type="line"/>
      <point x="387" y="281"/>
      <point x="442" y="281"/>
      <point x="500" y="279" type="curve"/>
      <point x="500" y="311" type="line"/>
      <point x="442" y="309"/>
      <point x="387" y="309"/>
      <point x="340" y="309" type="curve"/>
      <point x="230" y="309" type="line"/>
      <point x="183" y="309"/>
      <point x="128" y="309"/>
      <point x="70" y="311" type="curve"/>
    </contour>
  </outline>
</glyph>
<glyph name="emdash" format="2">
  <advance width="780"/>
  <unicode hex="2014"/>
  <outline>
    <contour>
      <point x="70" y="279" type="line"/>
      <point x="156" y="281"/>
      <point x="238" y="281"/>
      <point x="308" y="281" type="curve"/>
      <point x="472" y="281" type="line"/>
      <point x="542" y="281"/>
      <point x="624" y="281"/>
      <point x="710" y="279" type="curve"/>
      <point x="710" y="311" type="line"/>
      <point x="624" y="309"/>
      <point x="542" y="309"/>
      <point x="472" y="309" type="curve"/>
      <point x="308" y="309" type="line"/>
      <point x="238" y="309"/>
      <point x="156" y="309"/>
      <point x="70" y="311" type="curve"/>
    </contour>
  </outline>
</glyph>
<glyph name="dagger" format="2">
  <advance width="560"/>
  <unicode hex="2020"/>
  <outline>
    <contour>
      <point x="262" y="0" type="curve"/>
      <point x="298" y="0" type="line"/>
      <point x="295" y="146"/>
      <point x="295" y="273"/>
      <point x="295" y="431" type="curve"/>
      <point x="295" y="447" type="line"/>
      <point x="295" y="532"/>
      <point x="296" y="612"/>
      <point x="298" y="684" type="curve"/>
      <point x="262" y="684" type="line"/>
      <point x="264" y="612"/>
      <point x="265" y="532"/>
      <point x="265" y="447" type="curve"/>
      <point x="265" y="431" type="line"/>
      <point x="265" y="273"/>
      <point x="265" y="146"/>
    </contour>
    <contour>
      <point x="60" y="428" type="line"/>
      <point x="118" y="430"/>
      <point x="173" y="430"/>
      <point x="220" y="430" type="curve"/>
      <point x="340" y="430" type="line"/>
      <point x="387" y="430"/>
      <point x="442" y="430"/>
      <point x="500" y="428" type="curve"/>
      <point x="500" y="462" type="line"/>
      <point x="442" y="460"/>
      <point x="387" y="460"/>
      <point x="340" y="460" type="curve"/>
      <point x="220" y="460" type="line"/>
      <point x="173" y="460"/>
      <point x="118" y="460"/>
      <point x="60" y="462" type="curve"/>
    </contour>
  </outline>
</glyph>
<glyph name="bullet" format="2">
  <advance width="406"/>
  <unicode hex="2022"/>
  <outline>
    <contour>
      <point x="203" y="191" type="curve" smooth="yes"/>
      <point x="268" y="191"/>
      <point x="306" y="223"/>
      <point x="306" y="301" type="curve" smooth="yes"/>
      <point x="306" y="368"/>
      <point x="268" y="397"/>
      <point x="203" y="397" type="curve" smooth="yes"/>
      <point x="142" y="397"/>
      <point x="100" y="368"/>
      <point x="100" y="301" type="curve" smooth="yes"/>
      <point x="100" y="223"/>
      <point x="142" y="191"/>
    </contour>
  </outline>
</glyph>
<glyph name="minute" format="2">
  <advance width="228"/>
  <unicode hex="2032"/>
  <outline>
    <contour>
      <point x="80" y="407" type="curve"/>
      <point x="106" y="408" type="line"/>
      <point x="116" y="501"/>
      <point x="131" y="594"/>
      <point x="148" y="685" type="curve"/>
      <point x="96" y="684" type="line"/>
      <point x="95" y="593"/>
      <point x="90" y="501"/>
    </contour>
  </outline>
</glyph>
<glyph name="colonsign" format="2">
  <advance width="656"/>
  <unicode hex="20A1"/>
  <outline>
    <contour>
      <point x="399" y="-9" type="curve" smooth="yes"/>
      <point x="465" y="-9"/>
      <point x="541" y="11"/>
      <point x="597" y="43" type="curve"/>
      <point x="591" y="82" type="line"/>
      <point x="533" y="44"/>
      <point x="463" y="23"/>
      <point x="397" y="23" type="curve"/>
      <point x="198" y="25"/>
      <point x="92" y="166"/>
      <point x="92" y="344" type="curve" smooth="yes"/>
      <point x="92" y="537"/>
      <point x="213" y="662"/>
      <point x="385" y="664" type="curve"/>
      <point x="423" y="664"/>
      <point x="503" y="647"/>
      <point x="597" y="602" type="curve"/>
      <point x="602" y="639" type="line"/>
      <point x="547" y="663"/>
      <point x="457" y="696"/>
      <point x="386" y="696" type="curve" smooth="yes"/>
      <point x="200" y="696"/>
      <point x="60" y="553"/>
      <point x="60" y="345" type="curve" smooth="yes"/>
      <point x="60" y="147"/>
      <point x="189" y="-9"/>
    </contour>
    <contour>
      <point x="181" y="-137" type="curve"/>
      <point x="216" y="-137" type="line"/>
      <point x="239" y="-20"/>
      <point x="261" y="84"/>
      <point x="284" y="192" type="curve"/>
      <point x="344" y="474" type="line"/>
      <point x="367" y="582"/>
      <point x="389" y="685"/>
      <point x="416" y="803" type="curve"/>
      <point x="381" y="803" type="line"/>
      <point x="358" y="686"/>
      <point x="336" y="582"/>
      <point x="313" y="474" type="curve"/>
      <point x="253" y="192" type="line"/>
      <point x="230" y="84"/>
      <point x="208" y="-20"/>
    </contour>
    <contour>
      <point x="308" y="-137" type="curve"/>
      <point x="343" y="-137" type="line"/>
      <point x="366" y="-20"/>
      <point x="388" y="84"/>
      <point x="411" y="192" type="curve"/>
      <point x="471" y="474" type="line"/>
      <point x="494" y="582"/>
      <point x="516" y="685"/>
      <point x="543" y="803" type="curve"/>
      <point x="508" y="803" type="line"/>
      <point x="485" y="686"/>
      <point x="463" y="582"/>
      <point x="440" y="474" type="curve"/>
      <point x="380" y="192" type="line"/>
      <point x="357" y="84"/>
      <point x="335" y="-20"/>
    </contour>
  </outline>
</glyph>
<glyph name="franc" format="2">
  <advance width="568"/>
  <unicode hex="20A3"/>
  <outline>
    <contour>
      <point x="125" y="0" type="curve"/>
      <point x="161" y="0" type="line"/>
      <point x="158" y="78"/>
      <point x="158" y="145"/>
      <point x="158" y="228" type="curve"/>
      <point x="158" y="453" type="line"/>
      <point x="158" y="537"/>
      <point x="158" y="604"/>
      <point x="161" y="682" type="curve"/>
      <point x="158" y="684" type="line"/>
      <point x="125" y="684" type="line"/>
      <point x="127" y="607"/>
      <point x="127" y="540"/>
      <point x="127" y="456" type="curve"/>
      <point x="127" y="228" type="line"/>
      <point x="127" y="145"/>
      <point x="127" y="78"/>
    </contour>
    <contour>
      <point x="152" y="654" type="line"/>
      <point x="272" y="654" type="line"/>
      <point x="376" y="654"/>
      <point x="448" y="654"/>
      <point x="516" y="651" type="curve"/>
      <point x="516" y="684" type="line"/>
      <point x="152" y="684" type="line"/>
    </contour>
    <contour>
      <point x="152" y="333" type="line"/>
      <point x="279" y="333" type="line"/>
      <point x="369" y="333"/>
      <point x="428" y="333"/>
      <point x="494" y="331" type="curve"/>
      <point x="494" y="365" type="line"/>
      <point x="432" y="363"/>
      <point x="371" y="363"/>
      <point x="280" y="363" type="curve"/>
      <point x="152" y="363" type="line"/>
    </contour>
    <contour>
      <point x="38" y="156" type="line"/>
      <point x="96" y="158"/>
      <point x="151" y="158"/>
      <point x="198" y="158" type="curve"/>
      <point x="228" y="158" type="line"/>
      <point x="275" y="158"/>
      <point x="330" y="158"/>
      <point x="388" y="156" type="curve"/>
      <point x="388" y="188" type="line"/>
      <point x="330" y="186"/>
      <point x="275" y="186"/>
      <point x="228" y="186" type="curve"/>
      <point x="198" y="186" type="line"/>
      <point x="151" y="186"/>
      <point x="96" y="186"/>
      <point x="38" y="188" type="curve"/>
    </contour>
  </outline>
</glyph>
<glyph name="lira" format="2">
  <advance width="579"/>
  <unicode hex="20A4"/>
  <outline>
    <contour>
      <point x="75" y="0" type="line"/>
      <point x="544" y="0" type="line"/>
      <point x="544" y="33" type="line"/>
      <point x="455" y="30"/>
      <point x="377" y="30"/>
      <point x="244" y="30" type="curve"/>
      <point x="96" y="30" type="line"/>
      <point x="101" y="11" type="line"/>
      <point x="180" y="92"/>
      <point x="186" y="159"/>
      <point x="186" y="219" type="curve" smooth="yes"/>
      <point x="186" y="458" type="line" smooth="yes"/>
      <point x="186" y="600"/>
      <point x="244" y="663"/>
      <point x="363" y="664" type="curve"/>
      <point x="389" y="664"/>
      <point x="444" y="652"/>
      <point x="508" y="623" type="curve"/>
      <point x="513" y="658" type="line"/>
      <point x="474" y="673"/>
      <point x="412" y="696"/>
      <point x="362" y="696" type="curve" smooth="yes"/>
      <point x="237" y="696"/>
      <point x="154" y="622"/>
      <point x="154" y="462" type="curve" smooth="yes"/>
      <point x="154" y="381"/>
      <point x="155" y="301"/>
      <point x="155" y="220" type="curve"/>
      <point x="155" y="170"/>
      <point x="150" y="100"/>
      <point x="75" y="27" type="curve"/>
    </contour>
    <contour>
      <point x="66" y="387" type="line"/>
      <point x="124" y="389"/>
      <point x="179" y="389"/>
      <point x="226" y="389" type="curve"/>
      <point x="256" y="389" type="line"/>
      <point x="303" y="389"/>
      <point x="358" y="389"/>
      <point x="416" y="387" type="curve"/>
      <point x="416" y="419" type="line"/>
      <point x="358" y="417"/>
      <point x="303" y="417"/>
      <point x="256" y="417" type="curve"/>
      <point x="226" y="417" type="line"/>
      <point x="179" y="417"/>
      <point x="124" y="417"/>
      <point x="66" y="419" type="curve"/>
    </contour>
    <contour>
      <point x="66" y="257" type="line"/>
      <point x="124" y="259"/>
      <point x="179" y="259"/>
      <point x="226" y="259" type="curve"/>
      <point x="256" y="259" type="line"/>
      <point x="303" y="259"/>
      <point x="358" y="259"/>
      <point x="416" y="257" type="curve"/>
      <point x="416" y="289" type="line"/>
      <point x="358" y="287"/>
      <point x="303" y="287"/>
      <point x="256" y="287" type="curve"/>
      <point x="226" y="287" type="line"/>
      <point x="179" y="287"/>
      <point x="124" y="287"/>
      <point x="66" y="289" type="curve"/>
    </contour>
  </outline>
</glyph>
<glyph name="dong" format="2">
  <advance width="560"/>
  <unicode hex="20AB"/>
  <outline>
    <contour>
      <point x="246" y="139" type="curve" smooth="yes"/>
      <point x="294" y="139"/>
      <point x="344" y="161"/>
      <point x="386" y="202" type="curve"/>
      <point x="392" y="202" type="line"/>
      <point x="394" y="146" type="line"/>
      <point x="423" y="146" type="line"/>
      <point x="420" y="206"/>
      <point x="420" y="258"/>
      <point x="420" y="323" type="curve"/>
      <point x="420" y="542" type="line"/>
      <point x="420" y="610"/>
      <point x="420" y="673"/>
      <point x="422" y="738" type="curve"/>
      <point x="386" y="732" type="line"/>
      <point x="390" y="674"/>
      <point x="390" y="610"/>
      <point x="390" y="542" type="curve"/>
      <point x="390" y="495" type="line"/>
      <point x="385" y="495" type="line"/>
      <point x="353" y="521"/>
      <point x="307" y="550"/>
      <point x="248" y="550" type="curve" smooth="yes"/>
      <point x="132" y="550"/>
      <point x="61" y="463"/>
      <point x="61" y="345" type="curve" smooth="yes"/>
      <point x="61" y="234"/>
      <point x="124" y="139"/>
    </contour>
    <contour>
      <point x="50" y="-2" type="line"/>
      <point x="108" y="0"/>
      <point x="163" y="0"/>
      <point x="210" y="0" type="curve"/>
      <point x="310" y="0" type="line"/>
      <point x="357" y="0"/>
      <point x="412" y="0"/>
      <point x="470" y="-2" type="curve"/>
      <point x="470" y="30" type="line"/>
      <point x="412" y="28"/>
      <point x="357" y="28"/>
      <point x="310" y="28" type="curve"/>
      <point x="210" y="28" type="line"/>
      <point x="163" y="28"/>
      <point x="108" y="28"/>
      <point x="50" y="30" type="curve"/>
    </contour>
    <contour>
      <point x="248" y="169" type="curve"/>
      <point x="137" y="170"/>
      <point x="92" y="254"/>
      <point x="92" y="345" type="curve" smooth="yes"/>
      <point x="92" y="441"/>
      <point x="141" y="518"/>
      <point x="249" y="519" type="curve"/>
      <point x="295" y="518"/>
      <point x="350" y="497"/>
      <point x="390" y="452" type="curve"/>
      <point x="390" y="247" type="line"/>
      <point x="351" y="196"/>
      <point x="301" y="169"/>
    </contour>
    <contour>
      <point x="190" y="638" type="line"/>
      <point x="248" y="640"/>
      <point x="303" y="640"/>
      <point x="350" y="640" type="curve"/>
      <point x="370" y="640" type="line"/>
      <point x="417" y="640"/>
      <point x="472" y="640"/>
      <point x="530" y="638" type="curve"/>
      <point x="530" y="670" type="line"/>
      <point x="472" y="668"/>
      <point x="417" y="668"/>
      <point x="370" y="668" type="curve"/>
      <point x="350" y="668" type="line"/>
      <point x="303" y="668"/>
      <point x="248" y="668"/>
      <point x="190" y="670" type="curve"/>
    </contour>
  </outline>
</glyph>
<glyph name="literSign" format="2">
  <advance width="542"/>
  <unicode hex="2113"/>
  <outline>
    <contour>
      <point x="358" y="-9" type="curve" smooth="yes"/>
      <point x="408" y="-9"/>
      <point x="453" y="13"/>
      <point x="483" y="27" type="curve"/>
      <point x="476" y="61" type="line"/>
      <point x="434" y="35"/>
      <point x="394" y="21"/>
      <point x="358" y="21" type="curve"/>
      <point x="237" y="22"/>
      <point x="201" y="115"/>
      <point x="201" y="269" type="curve" smooth="yes"/>
      <point x="201" y="416" type="line" smooth="yes"/>
      <point x="201" y="600"/>
      <point x="255" y="665"/>
      <point x="320" y="666" type="curve" smooth="yes"/>
      <point x="378" y="667"/>
      <point x="422" y="622"/>
      <point x="422" y="518" type="curve" smooth="yes"/>
      <point x="422" y="323"/>
      <point x="318" y="225"/>
      <point x="182" y="224" type="curve"/>
      <point x="141" y="224"/>
      <point x="91" y="238"/>
      <point x="40" y="264" type="curve"/>
      <point x="37" y="230" type="line"/>
      <point x="73" y="217"/>
      <point x="126" y="195"/>
      <point x="182" y="195" type="curve" smooth="yes"/>
      <point x="366" y="195"/>
      <point x="452" y="347"/>
      <point x="452" y="519" type="curve" smooth="yes"/>
      <point x="452" y="647"/>
      <point x="392" y="696"/>
      <point x="320" y="696" type="curve" smooth="yes"/>
      <point x="225" y="696"/>
      <point x="171" y="599"/>
      <point x="171" y="416" type="curve" smooth="yes"/>
      <point x="171" y="269" type="line" smooth="yes"/>
      <point x="171" y="96"/>
      <point x="219" y="-9"/>
    </contour>
  </outline>
</glyph>
<glyph name="trademark" format="2">
  <advance width="852"/>
  <unicode hex="2122"/>
  <outline>
    <contour>
      <point x="378" y="310" type="curve"/>
      <point x="415" y="310" type="line"/>
      <point x="420" y="375"/>
      <point x="429" y="451"/>
      <point x="437" y="517" type="curve"/>
      <point x="453" y="649" type="line"/>
      <point x="456" y="649" type="line"/>
      <point x="515" y="506" type="line"/>
      <point x="541" y="443"/>
      <point x="569" y="376"/>
      <point x="593" y="310" type="curve"/>
      <point x="621" y="310" type="line"/>
      <point x="645" y="375"/>
      <point x="672" y="441"/>
      <point x="699" y="506" type="curve"/>
      <point x="758" y="649" type="line"/>
      <point x="761" y="649" type="line"/>
      <point x="777" y="517" type="line"/>
      <point x="785" y="451"/>
      <point x="794" y="376"/>
      <point x="798" y="310" type="curve"/>
      <point x="835" y="310" type="line"/>
      <point x="827" y="352"/>
      <point x="821" y="401"/>
      <point x="816" y="443" type="curve"/>
      <point x="800" y="575" type="line"/>
      <point x="795" y="617"/>
      <point x="789" y="667"/>
      <point x="786" y="709" type="curve"/>
      <point x="749" y="709" type="line"/>
      <point x="726" y="646"/>
      <point x="703" y="591"/>
      <point x="680" y="535" type="curve"/>
      <point x="609" y="363" type="line"/>
      <point x="606" y="363" type="line"/>
      <point x="534" y="536" type="line"/>
      <point x="511" y="591"/>
      <point x="486" y="651"/>
      <point x="466" y="709" type="curve"/>
      <point x="428" y="709" type="line"/>
      <point x="424" y="661"/>
      <point x="420" y="622"/>
      <point x="414" y="574" type="curve"/>
      <point x="398" y="445" type="line"/>
      <point x="392" y="397"/>
      <point x="387" y="358"/>
    </contour>
    <contour>
      <point x="162" y="310" type="curve"/>
      <point x="199" y="310" type="line"/>
      <point x="197" y="355"/>
      <point x="196" y="394"/>
      <point x="196" y="443" type="curve"/>
      <point x="196" y="572" type="line"/>
      <point x="196" y="621"/>
      <point x="197" y="660"/>
      <point x="199" y="705" type="curve"/>
      <point x="199" y="709" type="line"/>
      <point x="162" y="709" type="line"/>
      <point x="162" y="705" type="line"/>
      <point x="164" y="660"/>
      <point x="165" y="621"/>
      <point x="165" y="572" type="curve"/>
      <point x="165" y="443" type="line"/>
      <point x="165" y="394"/>
      <point x="164" y="355"/>
    </contour>
    <contour>
      <point x="20" y="677" type="line"/>
      <point x="58" y="679"/>
      <point x="92" y="680"/>
      <point x="133" y="680" type="curve"/>
      <point x="170" y="680" type="line"/>
      <point x="170" y="709" type="line"/>
      <point x="20" y="709" type="line"/>
    </contour>
    <contour>
      <point x="191" y="680" type="line"/>
      <point x="227" y="680" type="line"/>
      <point x="279" y="680"/>
      <point x="311" y="679"/>
      <point x="340" y="677" type="curve"/>
      <point x="340" y="709" type="line"/>
      <point x="191" y="709" type="line"/>
    </contour>
  </outline>
</glyph>
<glyph name="partialdiff" format="2">
  <advance width="588"/>
  <unicode hex="2202"/>
  <outline>
    <contour>
      <point x="296" y="-9" type="curve" smooth="yes"/>
      <point x="444" y="-9"/>
      <point x="526" y="109"/>
      <point x="526" y="322" type="curve" smooth="yes"/>
      <point x="526" y="554"/>
      <point x="443" y="696"/>
      <point x="282" y="696" type="curve" smooth="yes"/>
      <point x="227" y="696"/>
      <point x="145" y="662"/>
      <point x="101" y="643" type="curve"/>
      <point x="108" y="607" type="line"/>
      <point x="184" y="647"/>
      <point x="254" y="664"/>
      <point x="282" y="664" type="curve"/>
      <point x="424" y="662"/>
      <point x="495" y="541"/>
      <point x="495" y="321" type="curve" smooth="yes"/>
      <point x="495" y="128"/>
      <point x="431" y="26"/>
      <point x="296" y="23" type="curve"/>
      <point x="159" y="26"/>
      <point x="93" y="132"/>
      <point x="93" y="239" type="curve" smooth="yes"/>
      <point x="93" y="345"/>
      <point x="157" y="442"/>
      <point x="292" y="445" type="curve"/>
      <point x="344" y="445"/>
      <point x="427" y="429"/>
      <point x="506" y="340" type="curve"/>
      <point x="506" y="359"/>
      <point x="506" y="382"/>
      <point x="506" y="404" type="curve"/>
      <point x="484" y="403" type="line"/>
      <point x="423" y="454"/>
      <point x="353" y="477"/>
      <point x="292" y="477" type="curve" smooth="yes"/>
      <point x="153" y="477"/>
      <point x="62" y="370"/>
      <point x="62" y="239" type="curve" smooth="yes"/>
      <point x="62" y="111"/>
      <point x="150" y="-9"/>
    </contour>
  </outline>
</glyph>
<glyph name="emptyset" format="2">
  <advance width="646"/>
  <unicode hex="2205"/>
  <outline>
    <contour>
      <point x="118" y="2" type="line"/>
      <point x="165" y="68"/>
      <point x="208" y="124"/>
      <point x="261" y="193" type="curve"/>
      <point x="404" y="380" type="line"/>
      <point x="457" y="449"/>
      <point x="504" y="509"/>
      <point x="554" y="571" type="curve"/>
      <point x="526" y="591" type="line"/>
      <point x="480" y="528"/>
      <point x="437" y="471"/>
      <point x="382" y="399" type="curve"/>
      <point x="238" y="211" type="line"/>
      <point x="186" y="143"/>
      <point x="143" y="88"/>
      <point x="91" y="23" type="curve"/>
    </contour>
    <contour>
      <point x="322" y="36" type="curve" smooth="yes"/>
      <point x="471" y="36"/>
      <point x="581" y="137"/>
      <point x="581" y="296" type="curve" smooth="yes"/>
      <point x="581" y="451"/>
      <point x="472" y="558"/>
      <point x="324" y="558" type="curve" smooth="yes"/>
      <point x="174" y="558"/>
      <point x="65" y="449"/>
      <point x="65" y="296" type="curve" smooth="yes"/>
      <point x="65" y="137"/>
      <point x="174" y="36"/>
    </contour>
    <contour>
      <point x="322" y="67" type="curve"/>
      <point x="196" y="69"/>
      <point x="96" y="140"/>
      <point x="96" y="296" type="curve" smooth="yes"/>
      <point x="96" y="443"/>
      <point x="198" y="524"/>
      <point x="324" y="526" type="curve"/>
      <point x="450" y="524"/>
      <point x="550" y="443"/>
      <point x="550" y="296" type="curve" smooth="yes"/>
      <point x="550" y="140"/>
      <point x="450" y="69"/>
    </contour>
  </outline>
</glyph>
<glyph name="product" format="2">
  <advance width="778"/>
  <unicode hex="220F"/>
  <outline>
    <contour>
      <point x="584" y="-192" type="curve"/>
      <point x="621" y="-192" type="line"/>
      <point x="618" y="-91"/>
      <point x="618" y="-3"/>
      <point x="618" y="106" type="curve"/>
      <point x="618" y="412" type="line"/>
      <point x="618" y="521"/>
      <point x="619" y="608"/>
      <point x="621" y="709" type="curve"/>
      <point x="621" y="713" type="line"/>
      <point x="583" y="713" type="line"/>
      <point x="583" y="709" type="line"/>
      <point x="585" y="608"/>
      <point x="586" y="521"/>
      <point x="586" y="412" type="curve"/>
      <point x="586" y="106" type="line"/>
      <point x="586" y="-3"/>
      <point x="586" y="-91"/>
    </contour>
    <contour>
      <point x="159" y="-192" type="curve"/>
      <point x="196" y="-192" type="line"/>
      <point x="193" y="-91"/>
      <point x="193" y="-3"/>
      <point x="193" y="106" type="curve"/>
      <point x="193" y="412" type="line"/>
      <point x="193" y="521"/>
      <point x="194" y="608"/>
      <point x="196" y="709" type="curve"/>
      <point x="196" y="713" type="line"/>
      <point x="158" y="713" type="line"/>
      <point x="158" y="709" type="line"/>
      <point x="160" y="608"/>
      <point x="161" y="521"/>
      <point x="161" y="412" type="curve"/>
      <point x="161" y="106" type="line"/>
      <point x="161" y="-3"/>
      <point x="161" y="-91"/>
    </contour>
    <contour>
      <point x="35" y="678" type="line"/>
      <point x="94" y="680"/>
      <point x="156" y="682"/>
      <point x="241" y="682" type="curve"/>
      <point x="537" y="682" type="line"/>
      <point x="622" y="682"/>
      <point x="685" y="681"/>
      <point x="743" y="678" type="curve"/>
      <point x="743" y="713" type="line"/>
      <point x="35" y="713" type="line"/>
    </contour>
  </outline>
</glyph>
<glyph name="infinity" format="2">
  <advance width="898"/>
  <unicode hex="221E"/>
  <outline>
    <contour>
      <point x="658" y="86" type="curve" smooth="yes"/>
      <point x="779" y="86"/>
      <point x="836" y="186"/>
      <point x="836" y="295" type="curve" smooth="yes"/>
      <point x="836" y="411"/>
      <point x="771" y="504"/>
      <point x="656" y="504" type="curve" smooth="yes"/>
      <point x="569" y="504"/>
      <point x="482" y="419"/>
      <point x="436" y="305" type="curve"/>
      <point x="436" y="285" type="line"/>
      <point x="482" y="168"/>
      <point x="568" y="86"/>
    </contour>
    <contour>
      <point x="240" y="86" type="curve" smooth="yes"/>
      <point x="330" y="86"/>
      <point x="416" y="168"/>
      <point x="462" y="285" type="curve"/>
      <point x="462" y="305" type="line"/>
      <point x="416" y="419"/>
      <point x="329" y="504"/>
      <point x="242" y="504" type="curve" smooth="yes"/>
      <point x="127" y="504"/>
      <point x="62" y="411"/>
      <point x="62" y="295" type="curve" smooth="yes"/>
      <point x="62" y="186"/>
      <point x="119" y="86"/>
    </contour>
    <contour>
      <point x="241" y="117" type="curve"/>
      <point x="150" y="120"/>
      <point x="93" y="181"/>
      <point x="93" y="295" type="curve" smooth="yes"/>
      <point x="93" y="408"/>
      <point x="152" y="470"/>
      <point x="242" y="473" type="curve"/>
      <point x="313" y="471"/>
      <point x="391" y="400"/>
      <point x="432" y="295" type="curve"/>
      <point x="392" y="188"/>
      <point x="315" y="119"/>
    </contour>
    <contour>
      <point x="657" y="117" type="curve"/>
      <point x="583" y="119"/>
      <point x="506" y="188"/>
      <point x="466" y="295" type="curve"/>
      <point x="507" y="400"/>
      <point x="585" y="471"/>
      <point x="656" y="473" type="curve"/>
      <point x="746" y="470"/>
      <point x="805" y="408"/>
      <point x="805" y="295" type="curve" smooth="yes"/>
      <point x="805" y="181"/>
      <point x="748" y="120"/>
    </contour>
  </outline>
</glyph>
<glyph name="integral" format="2">
  <advance width="374"/>
  <unicode hex="222B"/>
  <outline>
    <contour>
      <point x="79" y="-202" type="curve" smooth="yes"/>
      <point x="142" y="-202"/>
      <point x="204" y="-167"/>
      <point x="204" y="-40" type="curve" smooth="yes"/>
      <point x="204" y="87"/>
      <point x="201" y="374"/>
      <point x="201" y="581" type="curve" smooth="yes"/>
      <point x="201" y="666"/>
      <point x="229" y="710"/>
      <point x="295" y="712" type="curve"/>
      <point x="317" y="712"/>
      <point x="342" y="707"/>
      <point x="360" y="701" type="curve"/>
      <point x="364" y="736" type="line"/>
      <point x="347" y="739"/>
      <point x="317" y="744"/>
      <point x="295" y="744" type="curve" smooth="yes"/>
      <point x="232" y="744"/>
      <point x="170" y="709"/>
      <point x="170" y="582" type="curve" smooth="yes"/>
      <point x="170" y="455"/>
      <point x="173" y="168"/>
      <point x="173" y="-39" type="curve" smooth="yes"/>
      <point x="173" y="-124"/>
      <point x="145" y="-168"/>
      <point x="79" y="-170" type="curve"/>
      <point x="57" y="-170"/>
      <point x="32" y="-165"/>
      <point x="14" y="-159" type="curve"/>
      <point x="10" y="-194" type="line"/>
      <point x="27" y="-197"/>
      <point x="57" y="-202"/>
    </contour>
  </outline>
</glyph>
<glyph name="lessequal" format="2">
  <advance width="560"/>
  <unicode hex="2264"/>
  <outline>
    <contour>
      <point x="490" y="160" type="curve"/>
      <point x="490" y="199" type="line"/>
      <point x="410" y="231"/>
      <point x="325" y="269"/>
      <point x="243" y="306" type="curve"/>
      <point x="112" y="365" type="line"/>
      <point x="112" y="371" type="line"/>
      <point x="243" y="430" type="line"/>
      <point x="325" y="467"/>
      <point x="410" y="505"/>
      <point x="490" y="537" type="curve"/>
      <point x="490" y="576" type="line"/>
      <point x="433" y="549"/>
      <point x="377" y="523"/>
      <point x="329" y="501" type="curve"/>
      <point x="229" y="456" type="line"/>
      <point x="183" y="435"/>
      <point x="127" y="410"/>
      <point x="70" y="386" type="curve"/>
      <point x="70" y="350" type="line"/>
      <point x="127" y="326"/>
      <point x="183" y="301"/>
      <point x="229" y="280" type="curve"/>
      <point x="329" y="235" type="line"/>
      <point x="377" y="213"/>
      <point x="433" y="187"/>
    </contour>
    <contour>
      <point x="70" y="-2" type="line"/>
      <point x="128" y="0"/>
      <point x="183" y="0"/>
      <point x="230" y="0" type="curve"/>
      <point x="330" y="0" type="line"/>
      <point x="377" y="0"/>
      <point x="432" y="0"/>
      <point x="490" y="-2" type="curve"/>
      <point x="490" y="32" type="line"/>
      <point x="432" y="30"/>
      <point x="377" y="30"/>
      <point x="330" y="30" type="curve"/>
      <point x="230" y="30" type="line"/>
      <point x="183" y="30"/>
      <point x="128" y="30"/>
      <point x="70" y="32" type="curve"/>
    </contour>
  </outline>
</glyph>
<glyph name="_Q_tail" format="2">
  <advance width="768"/>
  <anchor x="384" y="0" name="_bottom"/>
  <outline>
    <contour>
      <point x="651" y="-165" type="curve"/>
      <point x="686" y="-144" type="line"/>
      <point x="631" y="-106"/>
      <point x="591" y="-76"/>
      <point x="550" y="-45" type="curve"/>
      <point x="456" y="27" type="line"/>
      <point x="437" y="4" type="line"/>
      <point x="522" y="-62" type="line"/>
      <point x="566" y="-97"/>
      <point x="610" y="-132"/>
    </contour>
  </outline>
</glyph>
<glyph name=".notdef" format="2">
  <advance width="635"/>
  <outline>
    <contour>
      <point x="50" y="-192" type="line"/>
      <point x="585" y="-192" type="line"/>
      <point x="585" y="818" type="line"/>
      <point x="50" y="818" type="line"/>
    </contour>
    <contour>
      <point x="80" y="-162" type="line"/>
      <point x="80" y="788" type="line"/>
      <point x="555" y="788" type="line"/>
      <point x="555" y="-162" type="line"/>
    </contour>
    <contour>
      <point x="329" y="191" type="curve" smooth="yes"/>
      <point x="347" y="191"/>
      <point x="370" y="194"/>
      <point x="385" y="198" type="curve"/>
      <point x="383" y="224" type="line"/>
      <point x="369" y="220"/>
      <point x="345" y="214"/>
      <point x="329" y="214" type="curve"/>
      <point x="290" y="215"/>
      <point x="258" y="229"/>
      <point x="258" y="274" type="curve" smooth="yes"/>
      <point x="258" y="314"/>
      <point x="294" y="343"/>
      <point x="337" y="374" type="curve" smooth="yes"/>
      <point x="388" y="411"/>
      <point x="445" y="454"/>
      <point x="445" y="528" type="curve" smooth="yes"/>
      <point x="445" y="600"/>
      <point x="389" y="640"/>
      <point x="312" y="640" type="curve" smooth="yes"/>
      <point x="275" y="640"/>
      <point x="222" y="623"/>
      <point x="190" y="611" type="curve"/>
      <point x="193" y="582" type="line"/>
      <point x="243" y="604"/>
      <point x="290" y="614"/>
      <point x="313" y="614" type="curve"/>
      <point x="379" y="614"/>
      <point x="419" y="584"/>
      <point x="419" y="528" type="curve" smooth="yes"/>
      <point x="419" y="466"/>
      <point x="368" y="428"/>
      <point x="321" y="392" type="curve" smooth="yes"/>
      <point x="276" y="358"/>
      <point x="232" y="326"/>
      <point x="232" y="274" type="curve" smooth="yes"/>
      <point x="232" y="223"/>
      <point x="272" y="191"/>
    </contour>
    <contour>
      <point x="308" y="9" type="curve" smooth="yes"/>
      <point x="331" y="9"/>
      <point x="346" y="20"/>
      <point x="346" y="48" type="curve" smooth="yes"/>
      <point x="346" y="73"/>
      <point x="331" y="84"/>
      <point x="308" y="84" type="curve" smooth="yes"/>
      <point x="286" y="84"/>
      <point x="271" y="73"/>
      <point x="271" y="48" type="curve" smooth="yes"/>
      <point x="271" y="20"/>
      <point x="286" y="9"/>
    </contour>
  </outline>
</glyph>
<glyph name="_notequal" format="2">
  <advance width="560"/>
  <outline>
    <contour>
      <point x="227" y="35" type="line"/>
      <point x="240" y="91"/>
      <point x="254" y="145"/>
      <point x="266" y="190" type="curve"/>
      <point x="321" y="393" type="line"/>
      <point x="333" y="438"/>
      <point x="347" y="491"/>
      <point x="364" y="547" type="curve"/>
      <point x="333" y="555" type="line"/>
      <point x="320" y="499"/>
      <point x="306" y="445"/>
      <point x="294" y="400" type="curve"/>
      <point x="239" y="197" type="line"/>
      <point x="227" y="152"/>
      <point x="213" y="99"/>
      <point x="196" y="43" type="curve"/>
    </contour>
  </outline>
</glyph>
<glyph name="_slash.Lslash" format="2">
  <advance width="576"/>
  <anchor x="287" y="357" name="_center"/>
  <outline>
    <contour>
      <point x="10" y="293" type="line"/>
      <point x="72" y="313"/>
      <point x="128" y="330"/>
      <point x="178" y="345" type="curve"/>
      <point x="225" y="359" type="line"/>
      <point x="275" y="374"/>
      <point x="332" y="391"/>
      <point x="394" y="407" type="curve"/>
      <point x="384" y="440" type="line"/>
      <point x="323" y="420"/>
      <point x="267" y="403"/>
      <point x="216" y="388" type="curve"/>
      <point x="170" y="374" type="line"/>
      <point x="119" y="359"/>
      <point x="63" y="343"/>
      <point x="0" y="326" type="curve"/>
    </contour>
  </outline>
</glyph>
<glyph name="_strokeshortcomb.Tbar" format="2">
  <advance width="739"/>
  <anchor x="370" y="357" name="_center"/>
  <outline>
    <contour>
      <point x="180" y="329" type="line"/>
      <point x="241" y="331"/>
      <point x="298" y="331"/>
      <point x="347" y="331" type="curve"/>
      <point x="393" y="331" type="line"/>
      <point x="442" y="331"/>
      <point x="499" y="331"/>
      <point x="560" y="329" type="curve"/>
      <point x="560" y="363" type="line"/>
      <point x="499" y="361"/>
      <point x="442" y="361"/>
      <point x="393" y="361" type="curve"/>
      <point x="347" y="361" type="line"/>
      <point x="298" y="361"/>
      <point x="241" y="361"/>
      <point x="180" y="363" type="curve"/>
    </contour>
  </outline>
</glyph>
<glyph name="brevecomb.narrow" format="2">
  <anchor x="300" y="494" name="_top"/>
  <anchor x="299" y="683" name="top"/>
  <outline>
    <contour>
      <point x="299" y="585" type="curve" smooth="yes"/>
      <point x="382" y="585"/>
      <point x="429" y="648"/>
      <point x="429" y="758" type="curve"/>
      <point x="401" y="758" type="line"/>
      <point x="401" y="656"/>
      <point x="364" y="618"/>
      <point x="299" y="616" type="curve"/>
      <point x="237" y="618"/>
      <point x="198" y="653"/>
      <point x="198" y="759" type="curve"/>
      <point x="170" y="758" type="line"/>
      <point x="170" y="649"/>
      <point x="217" y="585"/>
    </contour>
  </outline>
</glyph>
<glyph name="brevecomb_acutecomb.case" format="2">
  <anchor x="298.5" y="494" name="_top"/>
  <outline>
    <contour>
      <point x="298" y="575" type="curve" smooth="yes"/>
      <point x="390" y="575"/>
      <point x="441" y="638"/>
      <point x="441" y="718" type="curve"/>
      <point x="412" y="718" type="line"/>
      <point x="412" y="646"/>
      <point x="371" y="608"/>
      <point x="298" y="606" type="curve"/>
      <point x="226" y="608"/>
      <point x="185" y="646"/>
      <point x="185" y="719" type="curve"/>
      <point x="156" y="718" type="line"/>
      <point x="156" y="638"/>
      <point x="208" y="575"/>
    </contour>
    <contour>
      <point x="243" y="724" type="curve"/>
      <point x="276" y="725" type="line"/>
      <point x="329" y="783"/>
      <point x="381" y="840"/>
      <point x="431" y="899" type="curve"/>
      <point x="385" y="899" type="line"/>
      <point x="340" y="840"/>
      <point x="292" y="782"/>
    </contour>
  </outline>
</glyph>
<glyph name="brevecomb_acutecomb" format="2">
  <anchor x="298.5" y="494" name="_top"/>
  <outline>
    <contour>
      <point x="298" y="585" type="curve" smooth="yes"/>
      <point x="390" y="585"/>
      <point x="441" y="648"/>
      <point x="441" y="758" type="curve"/>
      <point x="412" y="758" type="line"/>
      <point x="412" y="656"/>
      <point x="371" y="618"/>
      <point x="298" y="616" type="curve"/>
      <point x="226" y="618"/>
      <point x="185" y="656"/>
      <point x="185" y="759" type="curve"/>
      <point x="156" y="758" type="line"/>
      <point x="156" y="648"/>
      <point x="208" y="585"/>
    </contour>
    <contour>
      <point x="243" y="764" type="curve"/>
      <point x="276" y="765" type="line"/>
      <point x="329" y="829"/>
      <point x="381" y="892"/>
      <point x="431" y="957" type="curve"/>
      <point x="385" y="956" type="line"/>
      <point x="340" y="892"/>
      <point x="292" y="828"/>
    </contour>
  </outline>
</glyph>
<glyph name="brevecomb_hookabovecomb" format="2">
  <anchor x="298.5" y="494" name="_top"/>
  <outline>
    <contour>
      <point x="298" y="585" type="curve" smooth="yes"/>
      <point x="390" y="585"/>
      <point x="441" y="648"/>
      <point x="441" y="758" type="curve"/>
      <point x="412" y="758" type="line"/>
      <point x="412" y="656"/>
      <point x="371" y="618"/>
      <point x="298" y="616" type="curve"/>
      <point x="226" y="618"/>
      <point x="185" y="656"/>
      <point x="185" y="759" type="curve"/>
      <point x="156" y="758" type="line"/>
      <point x="156" y="648"/>
      <point x="208" y="585"/>
    </contour>
    <contour>
      <point x="278" y="764" type="line"/>
      <point x="308" y="764" type="line"/>
      <point x="308" y="799" type="line"/>
      <point x="344" y="814"/>
      <point x="396" y="841"/>
      <point x="396" y="897" type="curve" smooth="yes"/>
      <point x="396" y="949"/>
      <point x="349" y="974"/>
      <point x="302" y="974" type="curve" smooth="yes"/>
      <point x="273" y="974"/>
      <point x="235" y="959"/>
      <point x="210" y="951" type="curve"/>
      <point x="213" y="917" type="line"/>
      <point x="247" y="933"/>
      <point x="284" y="943"/>
      <point x="301" y="943" type="curve"/>
      <point x="335" y="942"/>
      <point x="365" y="931"/>
      <point x="365" y="897" type="curve" smooth="yes"/>
      <point x="365" y="860"/>
      <point x="328" y="834"/>
      <point x="278" y="817" type="curve"/>
    </contour>
  </outline>
</glyph>
<glyph name="caroncomb.alt" format="2">
  <anchor x="300" y="494" name="_topright"/>
  <outline>
    <contour>
      <point x="335" y="543" type="curve"/>
      <point x="363" y="544" type="line"/>
      <point x="384" y="589"/>
      <point x="405" y="673"/>
      <point x="405" y="733" type="curve" smooth="yes"/>
      <point x="405" y="755"/>
      <point x="401" y="765"/>
      <point x="386" y="766" type="curve"/>
      <point x="369" y="765" type="line"/>
      <point x="371" y="743"/>
      <point x="371" y="721"/>
      <point x="371" y="698" type="curve"/>
      <point x="371" y="665"/>
      <point x="358" y="595"/>
    </contour>
  </outline>
</glyph>
<glyph name="cedi.BRACKET.140" format="2">
  <advance width="656"/>
  <outline>
    <contour>
      <point x="399" y="-9" type="curve" smooth="yes"/>
      <point x="465" y="-9"/>
      <point x="541" y="11"/>
      <point x="597" y="43" type="curve"/>
      <point x="591" y="82" type="line"/>
      <point x="533" y="44"/>
      <point x="463" y="23"/>
      <point x="397" y="23" type="curve"/>
      <point x="198" y="25"/>
      <point x="92" y="166"/>
      <point x="92" y="344" type="curve" smooth="yes"/>
      <point x="92" y="537"/>
      <point x="213" y="662"/>
      <point x="385" y="664" type="curve"/>
      <point x="423" y="664"/>
      <point x="503" y="647"/>
      <point x="597" y="602" type="curve"/>
      <point x="602" y="639" type="line"/>
      <point x="547" y="663"/>
      <point x="457" y="696"/>
      <point x="386" y="696" type="curve" smooth="yes"/>
      <point x="200" y="696"/>
      <point x="60" y="553"/>
      <point x="60" y="345" type="curve" smooth="yes"/>
      <point x="60" y="147"/>
      <point x="189" y="-9"/>
    </contour>
    <contour>
      <point x="354" y="-137" type="curve"/>
      <point x="388" y="-137" type="line"/>
      <point x="387" y="-86"/>
      <point x="386" y="-38"/>
      <point x="386" y="9" type="curve"/>
      <point x="356" y="9" type="line"/>
      <point x="356" y="-38"/>
      <point x="355" y="-86"/>
    </contour>
    <contour>
      <point x="356" y="675" type="curve"/>
      <point x="386" y="675" type="line"/>
      <point x="386" y="716"/>
      <point x="387" y="759"/>
      <point x="388" y="803" type="curve"/>
      <point x="354" y="803" type="line"/>
      <point x="355" y="759"/>
      <point x="356" y="716"/>
    </contour>
  </outline>
</glyph>
<glyph name="circumflexcomb_gravecomb" format="2">
  <anchor x="298.5" y="494" name="_top"/>
  <outline>
    <contour>
      <point x="466" y="740" type="curve"/>
      <point x="499" y="741" type="line"/>
      <point x="450" y="805"/>
      <point x="402" y="869"/>
      <point x="357" y="933" type="curve"/>
      <point x="311" y="932" type="line"/>
      <point x="361" y="867"/>
      <point x="413" y="804"/>
    </contour>
    <contour>
      <point x="133" y="587" type="curve"/>
      <point x="166" y="587" type="line"/>
      <point x="219" y="651"/>
      <point x="269" y="714"/>
      <point x="319" y="777" type="curve"/>
      <point x="275" y="777" type="line"/>
      <point x="229" y="714"/>
      <point x="182" y="651"/>
    </contour>
    <contour>
      <point x="431" y="585" type="curve"/>
      <point x="464" y="586" type="line"/>
      <point x="415" y="650"/>
      <point x="368" y="714"/>
      <point x="322" y="777" type="curve"/>
      <point x="278" y="777" type="line"/>
      <point x="327" y="714"/>
      <point x="379" y="649"/>
    </contour>
  </outline>
</glyph>
<glyph name="circumflexcomb_hookabovecomb.case" format="2">
  <anchor x="300" y="494" name="_top"/>
  <outline>
    <contour>
      <point x="133" y="577" type="curve"/>
      <point x="166" y="577" type="line"/>
      <point x="219" y="635"/>
      <point x="269" y="692"/>
      <point x="319" y="750" type="curve"/>
      <point x="275" y="750" type="line"/>
      <point x="229" y="692"/>
      <point x="182" y="635"/>
    </contour>
    <contour>
      <point x="431" y="575" type="curve"/>
      <point x="464" y="576" type="line"/>
      <point x="415" y="634"/>
      <point x="368" y="692"/>
      <point x="322" y="750" type="curve"/>
      <point x="278" y="750" type="line"/>
      <point x="327" y="692"/>
      <point x="379" y="633"/>
    </contour>
    <contour>
      <point x="423" y="704" type="line"/>
      <point x="453" y="704" type="line"/>
      <point x="453" y="739" type="line"/>
      <point x="489" y="744"/>
      <point x="541" y="771"/>
      <point x="541" y="827" type="curve" smooth="yes"/>
      <point x="541" y="879"/>
      <point x="494" y="904"/>
      <point x="447" y="904" type="curve" smooth="yes"/>
      <point x="418" y="904"/>
      <point x="380" y="889"/>
      <point x="355" y="881" type="curve"/>
      <point x="358" y="847" type="line"/>
      <point x="392" y="863"/>
      <point x="429" y="873"/>
      <point x="446" y="873" type="curve"/>
      <point x="480" y="872"/>
      <point x="510" y="861"/>
      <point x="510" y="827" type="curve" smooth="yes"/>
      <point x="510" y="790"/>
      <point x="473" y="764"/>
      <point x="423" y="757" type="curve"/>
    </contour>
  </outline>
</glyph>
<glyph name="circumflexcomb_tildecomb.case" format="2">
  <anchor x="300" y="494" name="_top"/>
  <outline>
    <contour>
      <point x="133" y="577" type="curve"/>
      <point x="166" y="577" type="line"/>
      <point x="219" y="635"/>
      <point x="269" y="692"/>
      <point x="319" y="750" type="curve"/>
      <point x="275" y="750" type="line"/>
      <point x="229" y="692"/>
      <point x="182" y="635"/>
    </contour>
    <contour>
      <point x="431" y="575" type="curve"/>
      <point x="464" y="576" type="line"/>
      <point x="415" y="634"/>
      <point x="368" y="692"/>
      <point x="322" y="750" type="curve"/>
      <point x="278" y="750" type="line"/>
      <point x="327" y="692"/>
      <point x="379" y="633"/>
    </contour>
    <contour>
      <point x="380" y="777" type="curve" smooth="yes"/>
      <point x="432" y="777"/>
      <point x="463" y="816"/>
      <point x="463" y="888" type="curve"/>
      <point x="435" y="888" type="line"/>
      <point x="431" y="832"/>
      <point x="418" y="810"/>
      <point x="381" y="808" type="curve"/>
      <point x="321" y="810"/>
      <point x="290" y="901"/>
      <point x="218" y="901" type="curve" smooth="yes"/>
      <point x="166" y="901"/>
      <point x="135" y="862"/>
      <point x="135" y="790" type="curve"/>
      <point x="163" y="790" type="line"/>
      <point x="166" y="846"/>
      <point x="181" y="868"/>
      <point x="217" y="870" type="curve"/>
      <point x="277" y="868"/>
      <point x="308" y="777"/>
    </contour>
  </outline>
</glyph>
<glyph name="dieresiscomb.narrow" format="2">
  <anchor x="299" y="494" name="_top"/>
  <anchor x="298" y="675" name="top"/>
  <outline>
    <contour>
      <point x="378" y="628" type="curve" smooth="yes"/>
      <point x="404" y="628"/>
      <point x="414" y="643"/>
      <point x="414" y="675" type="curve" smooth="yes"/>
      <point x="414" y="701"/>
      <point x="404" y="711"/>
      <point x="379" y="711" type="curve" smooth="yes"/>
      <point x="353" y="711"/>
      <point x="343" y="702"/>
      <point x="343" y="678" type="curve" smooth="yes"/>
      <point x="343" y="643"/>
      <point x="353" y="628"/>
    </contour>
    <contour>
      <point x="218" y="628" type="curve" smooth="yes"/>
      <point x="244" y="628"/>
      <point x="254" y="643"/>
      <point x="254" y="675" type="curve" smooth="yes"/>
      <point x="254" y="701"/>
      <point x="244" y="711"/>
      <point x="219" y="711" type="curve" smooth="yes"/>
      <point x="193" y="711"/>
      <point x="183" y="702"/>
      <point x="183" y="678" type="curve" smooth="yes"/>
      <point x="183" y="643"/>
      <point x="193" y="628"/>
    </contour>
  </outline>
</glyph>
<glyph name="guarani.BRACKET.140" format="2">
  <advance width="706"/>
  <outline>
    <contour>
      <point x="417" y="-9" type="curve" smooth="yes"/>
      <point x="487" y="-9"/>
      <point x="570" y="7"/>
      <point x="630" y="36" type="curve"/>
      <point x="624" y="73" type="line"/>
      <point x="562" y="41"/>
      <point x="487" y="23"/>
      <point x="417" y="23" type="curve"/>
      <point x="191" y="25"/>
      <point x="92" y="163"/>
      <point x="92" y="345" type="curve" smooth="yes"/>
      <point x="92" y="538"/>
      <point x="212" y="662"/>
      <point x="391" y="664" type="curve"/>
      <point x="430" y="664"/>
      <point x="513" y="648"/>
      <point x="611" y="604" type="curve"/>
      <point x="616" y="641" type="line"/>
      <point x="559" y="664"/>
      <point x="465" y="696"/>
      <point x="391" y="696" type="curve" smooth="yes"/>
      <point x="195" y="696"/>
      <point x="60" y="549"/>
      <point x="60" y="345" type="curve" smooth="yes"/>
      <point x="60" y="147"/>
      <point x="181" y="-9"/>
    </contour>
    <contour>
      <point x="595" y="35" type="curve"/>
      <point x="630" y="36" type="line"/>
      <point x="628" y="101"/>
      <point x="628" y="144"/>
      <point x="628" y="192" type="curve"/>
      <point x="628" y="250"/>
      <point x="628" y="290"/>
      <point x="631" y="335" type="curve"/>
      <point x="595" y="335" type="line"/>
      <point x="597" y="290"/>
      <point x="597" y="250"/>
      <point x="597" y="192" type="curve"/>
      <point x="597" y="144"/>
      <point x="597" y="101"/>
    </contour>
    <contour>
      <point x="357" y="-137" type="curve"/>
      <point x="391" y="-137" type="line"/>
      <point x="390" y="-86"/>
      <point x="389" y="-38"/>
      <point x="389" y="9" type="curve"/>
      <point x="359" y="9" type="line"/>
      <point x="359" y="-38"/>
      <point x="358" y="-86"/>
    </contour>
    <contour>
      <point x="359" y="675" type="curve"/>
      <point x="389" y="675" type="line"/>
      <point x="389" y="716"/>
      <point x="390" y="759"/>
      <point x="391" y="803" type="curve"/>
      <point x="357" y="803" type="line"/>
      <point x="358" y="759"/>
      <point x="359" y="716"/>
    </contour>
  </outline>
</glyph>
<glyph name="naira.BRACKET.140" format="2">
  <advance width="785"/>
  <outline>
    <contour>
      <point x="135" y="0" type="curve"/>
      <point x="171" y="0" type="line"/>
      <point x="168" y="78"/>
      <point x="168" y="145"/>
      <point x="168" y="228" type="curve"/>
      <point x="168" y="628" type="line"/>
      <point x="172" y="628" type="line"/>
      <point x="347" y="381" type="line"/>
      <point x="452" y="233"/>
      <point x="539" y="110"/>
      <point x="614" y="0" type="curve"/>
      <point x="651" y="0" type="line"/>
      <point x="648" y="78"/>
      <point x="648" y="145"/>
      <point x="648" y="228" type="curve"/>
      <point x="648" y="456" type="line"/>
      <point x="648" y="540"/>
      <point x="648" y="607"/>
      <point x="651" y="684" type="curve"/>
      <point x="615" y="684" type="line"/>
      <point x="617" y="607"/>
      <point x="617" y="540"/>
      <point x="617" y="456" type="curve"/>
      <point x="617" y="60" type="line"/>
      <point x="613" y="60" type="line"/>
      <point x="437" y="308" type="line"/>
      <point x="351" y="429"/>
      <point x="264" y="552"/>
      <point x="173" y="684" type="curve"/>
      <point x="135" y="684" type="line"/>
      <point x="137" y="607"/>
      <point x="137" y="540"/>
      <point x="137" y="456" type="curve"/>
      <point x="137" y="228" type="line"/>
      <point x="137" y="145"/>
      <point x="137" y="78"/>
    </contour>
    <contour>
      <point x="38" y="338" type="line"/>
      <point x="77" y="339"/>
      <point x="116" y="340"/>
      <point x="151" y="340" type="curve"/>
      <point x="151" y="368" type="line"/>
      <point x="116" y="368"/>
      <point x="77" y="369"/>
      <point x="38" y="370" type="curve"/>
    </contour>
    <contour>
      <point x="634" y="340" type="line"/>
      <point x="669" y="340"/>
      <point x="707" y="339"/>
      <point x="747" y="338" type="curve"/>
      <point x="747" y="370" type="line"/>
      <point x="707" y="369"/>
      <point x="669" y="368"/>
      <point x="634" y="368" type="curve"/>
    </contour>
  </outline>
</glyph>
<glyph name="zero.dnom" format="2">
  <advance width="464"/>
  <note>
254, 251
</note>
  <outline>
    <contour>
      <point x="234" y="-6" type="curve" smooth="yes"/>
      <point x="348" y="-6"/>
      <point x="414" y="85"/>
      <point x="414" y="231" type="curve" smooth="yes"/>
      <point x="414" y="372"/>
      <point x="351" y="467"/>
      <point x="232" y="467" type="curve" smooth="yes"/>
      <point x="116" y="467"/>
      <point x="50" y="374"/>
      <point x="50" y="230" type="curve" smooth="yes"/>
      <point x="50" y="93"/>
      <point x="109" y="-6"/>
    </contour>
    <contour>
      <point x="232" y="24" type="curve"/>
      <point x="124" y="25"/>
      <point x="81" y="110"/>
      <point x="81" y="231" type="curve" smooth="yes"/>
      <point x="81" y="350"/>
      <point x="126" y="436"/>
      <point x="232" y="437" type="curve"/>
      <point x="337" y="436"/>
      <point x="383" y="356"/>
      <point x="383" y="231" type="curve" smooth="yes"/>
      <point x="383" y="112"/>
      <point x="341" y="25"/>
    </contour>
  </outline>
</glyph>
